<svg width="328" height="305" viewBox="0 0 328 305" fill="none" xmlns="http://www.w3.org/2000/svg">
<path d="M47.958 281.286C111.907 311.762 215.583 311.771 279.531 281.286C343.48 250.802 343.471 201.395 279.531 170.919C215.592 140.444 111.907 140.444 47.958 170.919C-15.9906 201.395 -15.9813 250.811 47.958 281.286Z" fill="#F5F5F5"/>
<path d="M279.309 258.764C291.086 258.764 300.634 254.214 300.634 248.602C300.634 242.99 291.086 238.441 279.309 238.441C267.531 238.441 257.983 242.99 257.983 248.602C257.983 254.214 267.531 258.764 279.309 258.764Z" fill="#EBEBEB"/>
<path d="M43.1045 250.059L50.6491 245.707C54.8615 242.269 58.0677 237.758 59.9292 232.65C62.2584 226.228 61.9336 221.347 60.2632 218.897C58.2124 215.881 52.8949 216.41 52.6815 222.757C52.236 235.267 48.589 243.944 43.1045 250.059Z" fill="#3444F1"/>
<path opacity="0.2" d="M43.1045 250.059L50.6491 245.707C54.8615 242.269 58.0677 237.758 59.9292 232.65C62.2584 226.228 61.9336 221.347 60.2632 218.897C58.2124 215.881 52.8949 216.41 52.6815 222.757C52.236 235.267 48.589 243.944 43.1045 250.059Z" fill="black"/>
<path d="M43.1046 250.523C43.0063 250.522 42.911 250.49 42.8323 250.431C42.7536 250.372 42.6957 250.29 42.6668 250.196C42.6379 250.102 42.6395 250.001 42.6715 249.908C42.7035 249.815 42.7641 249.735 42.8447 249.679C60.2911 237.615 56.9132 220.79 56.8761 220.623C56.8633 220.562 56.8626 220.499 56.8741 220.438C56.8856 220.377 56.9091 220.318 56.9431 220.266C56.9771 220.214 57.0211 220.169 57.0725 220.134C57.1239 220.099 57.1817 220.074 57.2427 220.062C57.3036 220.049 57.3665 220.048 57.4276 220.06C57.4888 220.071 57.5472 220.094 57.5993 220.128C57.6514 220.163 57.6964 220.207 57.7315 220.258C57.7666 220.309 57.7913 220.367 57.8041 220.428C57.8041 220.604 61.3676 238.004 43.4015 250.44C43.3143 250.499 43.21 250.529 43.1046 250.523Z" fill="white"/>
<path d="M27.9874 258.792C27.9874 258.792 25.3611 256.657 25.9922 253.762C26.6232 250.867 28.3215 248.788 25.4168 245.057C22.5122 241.327 21.7048 236.353 25.1755 233.661C27.8204 231.573 31.95 234.524 33.4348 229.021C34.5298 224.994 34.1586 216.076 39.2904 213.106C44.4223 210.137 47.6425 214.61 46.8351 220.66C46.1298 226.07 45.1276 231.276 45.9071 232.724C47.4105 235.508 49.981 235.128 49.8604 240.213C49.7583 244.946 45.2761 248.862 45.2761 248.862L27.9874 258.792Z" fill="#3444F1"/>
<path d="M36.6085 254.254C36.4951 254.253 36.3858 254.211 36.3007 254.136C36.2155 254.061 36.1601 253.958 36.1445 253.845C34.8175 242.849 38.0005 223.862 40.5989 218.219C40.6208 218.157 40.6558 218.1 40.7017 218.052C40.7475 218.004 40.8031 217.966 40.8646 217.942C40.9262 217.917 40.9923 217.906 41.0585 217.909C41.1247 217.912 41.1895 217.929 41.2485 217.96C41.3039 217.985 41.3538 218.02 41.3951 218.065C41.4364 218.109 41.4684 218.162 41.4892 218.219C41.5099 218.276 41.519 218.337 41.516 218.397C41.5129 218.458 41.4977 218.517 41.4712 218.572C38.9007 224.14 35.829 243.183 37.1004 253.697C37.1134 253.819 37.0778 253.941 37.0013 254.036C36.9248 254.132 36.8137 254.193 36.692 254.207L36.6085 254.254Z" fill="white"/>
<path d="M36.3581 245.688C36.2871 245.692 36.2165 245.676 36.154 245.642C32.9338 244.074 30.8922 238.478 30.8087 238.218C30.7859 238.16 30.775 238.098 30.7765 238.036C30.778 237.974 30.792 237.913 30.8175 237.857C30.843 237.8 30.8796 237.749 30.9252 237.707C30.9707 237.665 31.0242 237.633 31.0825 237.611C31.1409 237.59 31.2029 237.581 31.2648 237.584C31.3268 237.588 31.3874 237.603 31.4432 237.63C31.499 237.658 31.5488 237.696 31.5897 237.742C31.6305 237.789 31.6616 237.843 31.681 237.902C31.681 237.958 33.6762 243.378 36.5623 244.779C36.6569 244.825 36.7332 244.901 36.7786 244.996C36.824 245.091 36.8358 245.199 36.8121 245.301C36.7883 245.404 36.7305 245.495 36.648 245.56C36.5655 245.626 36.4633 245.661 36.3581 245.66V245.688Z" fill="white"/>
<path d="M36.3023 249.4C36.2093 249.4 36.1185 249.372 36.0422 249.319C35.9659 249.266 35.9077 249.191 35.8754 249.103C35.8292 248.99 35.8296 248.863 35.8766 248.75C35.9235 248.637 36.0131 248.547 36.126 248.5C41.5455 246.329 44.9234 239.879 44.9605 239.805C45.0171 239.695 45.1149 239.613 45.2324 239.575C45.3499 239.538 45.4774 239.549 45.5869 239.605C45.6965 239.662 45.779 239.76 45.8164 239.877C45.8538 239.995 45.8431 240.122 45.7865 240.232C45.638 240.51 42.2136 247.062 36.5064 249.363C36.4428 249.393 36.3724 249.406 36.3023 249.4Z" fill="white"/>
<path d="M225.735 199.474C225.735 199.474 221.68 192.904 221.281 185.767C220.882 178.631 222.45 175.661 224.603 174.808C226.756 173.954 226.923 176.58 228.027 178.13C229.132 179.68 231.387 178.798 232.222 173.963C233.057 169.128 236.101 160.971 242.43 159.384C249.39 157.658 245.659 165.825 243.905 169.008C242.151 172.191 240.797 176.534 241.947 177.712C243.098 178.891 244.889 176.71 246.587 178.733C248.657 181.174 242.226 189.962 238.532 192.087L225.735 199.474Z" fill="#3444F1"/>
<path d="M231.294 196.718C231.233 196.715 231.173 196.701 231.118 196.675C231.062 196.65 231.013 196.614 230.971 196.569C230.93 196.524 230.898 196.471 230.877 196.414C230.856 196.357 230.846 196.296 230.849 196.235C231.477 184.755 235.057 173.632 241.242 163.941C241.277 163.89 241.322 163.847 241.374 163.815C241.426 163.782 241.484 163.76 241.545 163.751C241.606 163.741 241.668 163.744 241.727 163.759C241.787 163.774 241.843 163.801 241.892 163.839C241.989 163.911 242.054 164.018 242.073 164.138C242.092 164.258 242.064 164.38 241.994 164.479C235.919 174.028 232.404 184.98 231.786 196.281C231.782 196.342 231.767 196.402 231.74 196.457C231.713 196.512 231.676 196.561 231.63 196.602C231.585 196.642 231.532 196.673 231.474 196.693C231.416 196.713 231.355 196.721 231.294 196.718Z" fill="white"/>
<path d="M231.823 191.233C231.745 191.232 231.669 191.213 231.6 191.177C229.002 189.739 227.563 185.47 227.508 185.294C227.487 185.236 227.478 185.175 227.482 185.113C227.485 185.052 227.501 184.992 227.527 184.937C227.554 184.882 227.592 184.832 227.638 184.792C227.684 184.751 227.737 184.72 227.795 184.7C227.912 184.662 228.039 184.672 228.149 184.728C228.259 184.783 228.342 184.88 228.38 184.997C228.38 184.997 229.772 189.108 232.092 190.361C232.197 190.423 232.274 190.523 232.307 190.641C232.34 190.759 232.326 190.884 232.268 190.992C232.226 191.072 232.161 191.137 232.082 191.18C232.003 191.223 231.913 191.242 231.823 191.233Z" fill="white"/>
<path d="M232.278 188.421C232.175 188.42 232.075 188.385 231.995 188.321C231.914 188.257 231.857 188.169 231.832 188.069C231.817 188.01 231.813 187.949 231.822 187.889C231.831 187.83 231.851 187.772 231.882 187.72C231.913 187.668 231.954 187.623 232.003 187.587C232.052 187.552 232.107 187.526 232.166 187.512C238.866 185.814 241.186 182.306 241.205 182.269C241.238 182.217 241.281 182.172 241.331 182.137C241.381 182.102 241.438 182.077 241.498 182.063C241.557 182.05 241.619 182.048 241.68 182.059C241.74 182.07 241.798 182.092 241.85 182.125C241.902 182.158 241.946 182.201 241.982 182.251C242.017 182.301 242.042 182.358 242.055 182.418C242.069 182.477 242.07 182.539 242.06 182.6C242.049 182.66 242.027 182.718 241.994 182.77C241.892 182.928 239.479 186.612 232.398 188.412L232.278 188.421Z" fill="white"/>
<path d="M124.769 185.053C124.769 185.053 115.869 182.881 115.405 166.214C114.913 148.23 117.586 127.238 107.053 125.54C96.5204 123.842 90.674 136.676 90.8039 151.663C90.9245 164.785 96.2141 193.275 124.732 198.861L124.769 185.053Z" fill="#3444F1"/>
<path opacity="0.2" d="M124.769 185.053C124.769 185.053 115.869 182.881 115.405 166.214C114.913 148.23 117.586 127.238 107.053 125.54C96.5204 123.842 90.674 136.676 90.8039 151.663C90.9245 164.785 96.2141 193.275 124.732 198.861L124.769 185.053Z" fill="black"/>
<path d="M124.769 197.154H124.685C118.273 195.985 113.048 192.449 109.16 186.658C97.634 169.462 101.262 137.353 102.46 131.748C102.486 131.629 102.558 131.524 102.66 131.457C102.763 131.39 102.887 131.364 103.007 131.386C103.127 131.415 103.232 131.489 103.299 131.593C103.366 131.696 103.391 131.822 103.369 131.943C102.19 137.511 98.5805 169.212 109.93 186.138C111.582 188.763 113.762 191.016 116.33 192.754C118.899 194.493 121.801 195.678 124.852 196.235C124.913 196.246 124.971 196.269 125.022 196.303C125.074 196.337 125.118 196.38 125.153 196.431C125.187 196.482 125.211 196.539 125.223 196.6C125.236 196.66 125.236 196.722 125.223 196.783C125.204 196.888 125.147 196.983 125.064 197.051C124.981 197.119 124.876 197.156 124.769 197.154Z" fill="white"/>
<path d="M124.769 239.925C115.572 241.169 100.641 241.15 92.0196 234.357C83.3985 227.564 85.1988 221.718 88.5117 219.277C91.8247 216.837 94.7015 214.053 89.0036 208.633C83.3057 203.214 74.1556 194.509 71.1859 181.452C68.2163 168.395 69.6826 160.229 75.5104 157.51C81.162 154.874 82.6561 159.069 86.1175 167.718C89.5789 176.367 97.3649 168.952 104.028 171.652C110.691 174.353 110.422 179.698 110.839 184.292C111.257 188.885 113.456 190.157 117.233 190.157C121.01 190.157 124.769 192.328 124.769 196.653V239.925Z" fill="#3444F1"/>
<path d="M124.769 224.762C124.729 224.771 124.688 224.771 124.648 224.762C124.249 224.65 114.737 221.885 100.882 209.162C86.1268 195.613 79.1668 175.29 79.0925 175.086C79.0569 174.969 79.068 174.843 79.1233 174.734C79.1787 174.625 79.2741 174.542 79.3895 174.501C79.5052 174.463 79.6314 174.471 79.7408 174.525C79.8502 174.579 79.934 174.674 79.9741 174.789C80.0391 174.993 86.9341 195.094 101.513 208.475C115.173 221.031 124.797 223.843 124.899 223.871C124.957 223.888 125.012 223.916 125.059 223.955C125.107 223.993 125.146 224.04 125.176 224.093C125.205 224.147 125.223 224.205 125.23 224.266C125.237 224.327 125.231 224.388 125.214 224.446C125.184 224.54 125.124 224.621 125.044 224.678C124.964 224.735 124.867 224.765 124.769 224.762Z" fill="white"/>
<path d="M104.752 212.392C104.658 212.393 104.567 212.365 104.491 212.312C104.414 212.259 104.356 212.183 104.325 212.095C101.346 204.448 100.669 188.087 100.613 187.391C100.61 187.269 100.655 187.15 100.738 187.06C100.821 186.97 100.936 186.916 101.058 186.909C101.18 186.91 101.296 186.957 101.385 187.039C101.474 187.121 101.529 187.233 101.541 187.354C101.541 187.521 102.237 204.253 105.16 211.761C105.182 211.818 105.193 211.879 105.192 211.94C105.19 212.002 105.177 212.062 105.152 212.118C105.127 212.175 105.091 212.225 105.046 212.267C105.001 212.309 104.949 212.342 104.891 212.364C104.846 212.38 104.799 212.389 104.752 212.392Z" fill="white"/>
<path d="M104.678 223.388C103.822 223.395 102.967 223.352 102.116 223.258C102.055 223.251 101.996 223.232 101.943 223.202C101.889 223.172 101.842 223.131 101.804 223.083C101.767 223.035 101.738 222.98 101.722 222.921C101.705 222.862 101.701 222.8 101.708 222.739C101.715 222.678 101.734 222.619 101.765 222.565C101.795 222.512 101.835 222.465 101.883 222.427C101.931 222.389 101.987 222.361 102.046 222.345C102.105 222.328 102.167 222.323 102.228 222.33C102.311 222.33 110.951 223.314 114.913 219.277C114.955 219.229 115.006 219.189 115.063 219.161C115.12 219.132 115.183 219.116 115.247 219.113C115.311 219.11 115.374 219.121 115.434 219.144C115.494 219.167 115.548 219.201 115.594 219.246C115.639 219.291 115.675 219.345 115.699 219.404C115.722 219.464 115.734 219.527 115.732 219.591C115.73 219.655 115.714 219.718 115.687 219.776C115.66 219.834 115.621 219.885 115.572 219.927C112.705 222.887 107.703 223.388 104.678 223.388Z" fill="white"/>
<path d="M97.9958 47.6622L96.9936 41.8807L91.8339 45.2772C91.3625 44.3492 90.6942 43.5353 89.8758 42.8922L92.3443 36.2106L87.7043 35.1805L84.3078 41.6765C83.079 41.8839 81.8876 42.2716 80.7721 42.8273L79.2966 37.9274L73.7843 42.2612L74.1462 48.0148C73.0237 49.2722 72.0057 50.6192 71.1024 52.0423L66.5552 51.8103L63.3628 58.9652L67.2697 60.6356C66.8618 62.1155 66.6038 63.6327 66.4995 65.1643L61.5347 69.73L62.5276 75.5208L67.6966 72.1243C68.1653 73.0514 68.8341 73.8628 69.6547 74.5L67.2326 81.1908L71.8726 82.2117L76.7353 77.4788C77.8582 77.3025 77.5798 75.1867 78.8048 74.5835L80.2803 79.4648L85.7833 75.1403L85.6441 72.876C86.7577 71.6324 90.9709 68.8948 91.8803 67.4657L93.0217 65.6097L96.2141 58.4548L94.7293 55.7636L93.0774 52.2558L97.9958 47.6622ZM81.1526 66.6955C76.9209 70.0177 75.5846 70.7508 74.87 66.3057C74.1555 61.8606 76.5776 55.1047 80.8093 51.7732C85.0409 48.4417 86.6557 48.2097 87.4166 52.6455C88.1776 57.0814 85.3936 63.4103 81.1526 66.6955Z" fill="#E0E0E0"/>
<path d="M87.7412 35.1805L93.7639 38.6513L90.3674 45.1287L84.3447 41.658L87.7412 35.1805Z" fill="#F5F5F5"/>
<path d="M103.016 45.3515L97.8565 48.748L91.8337 45.2772L96.9934 41.8807L103.016 45.3515Z" fill="#F5F5F5"/>
<path d="M102.19 61.8977L98.2835 60.2366L92.2607 56.7659L96.1676 58.427L102.19 61.8977Z" fill="#E0E0E0"/>
<path d="M67.2231 81.1909L73.2459 84.6523L75.7144 77.9707L69.6916 74.5L67.2231 81.1909Z" fill="#E0E0E0"/>
<path d="M86.2473 82.9355L80.2338 79.4648L78.7583 74.5835L84.781 78.0542L86.2473 82.9355Z" fill="#E0E0E0"/>
<path d="M104.009 51.1329L103.016 45.3515L97.8566 48.748C97.3817 47.8196 96.7104 47.0057 95.8892 46.363L98.3577 39.6814L93.7641 38.6513L90.3584 45.1473C89.1295 45.3546 87.9381 45.7424 86.8227 46.298L85.3564 41.4167L79.8441 45.7505L80.206 51.5041C79.0823 52.7704 78.0642 54.1268 77.1622 55.5595L72.6057 55.3275L69.4134 62.4824L73.3202 64.1528C72.9161 65.6367 72.6581 67.1566 72.55 68.6907L67.5945 73.1915L68.5875 78.9823L73.7471 75.5858C74.2221 76.5114 74.8936 77.3222 75.7145 77.9614L73.246 84.6431L77.886 85.6731L81.2825 79.1771C82.5161 78.9721 83.7114 78.581 84.8275 78.0171L86.2937 82.8984L91.806 78.5739L91.4441 72.8203C92.5667 71.5629 93.5846 70.2159 94.488 68.7928L99.0444 69.0155L102.237 61.8606L98.2742 60.1995C98.685 58.7167 98.9462 57.1965 99.0537 55.6616L104.009 51.1329ZM87.1846 70.2034C82.9622 73.5256 78.9161 72.6254 78.1459 68.1896C77.3756 63.7537 80.1875 57.4526 84.4192 54.1304C88.6508 50.8081 92.6876 51.7176 93.4579 56.1534C94.2281 60.5893 91.4163 66.8811 87.1846 70.2034Z" fill="#EBEBEB"/>
<path d="M85.3563 41.3982L79.3336 37.9275L73.8213 42.2613L79.844 45.732L85.3563 41.3982Z" fill="#F5F5F5"/>
<path d="M73.8213 42.2612L74.1832 48.0148L80.2059 51.4855L79.844 45.7319L73.8213 42.2612Z" fill="#E0E0E0"/>
<path d="M77.162 55.5131L71.1393 52.0424L66.592 51.8196L72.6055 55.2904L77.162 55.5131Z" fill="#F5F5F5"/>
<path d="M66.5922 51.8196L63.3999 58.9652L69.4134 62.436L72.6057 55.2904L66.5922 51.8196Z" fill="#E0E0E0"/>
<path d="M72.55 68.635L66.5366 65.1643L61.5718 69.7301L67.5852 73.2008L72.55 68.635Z" fill="#F5F5F5"/>
<path d="M68.5875 78.9915L62.5647 75.5208L61.5718 69.73L67.5852 73.2008L68.5875 78.9915Z" fill="#E0E0E0"/>
<path d="M93.7639 38.6513L87.7412 35.1805L92.3441 36.2106L98.3575 39.6813L93.7639 38.6513Z" fill="#F5F5F5"/>
<path d="M71.028 21.4183V12.7786L64.1515 15.8781C63.7873 14.4123 63.1583 13.0253 62.2955 11.7856L66.6293 3.05313L61.3397 0L55.9387 8.12001C54.4336 7.98852 52.9171 8.13639 51.4657 8.55617L50.7048 1.04865L43.2251 5.37313L42.4734 13.7251C40.8456 15.1675 39.3487 16.7513 38.0004 18.4579L32.5995 16.6019L27.3099 25.7706L31.6343 29.4826C30.8353 31.5033 30.2143 33.59 29.7783 35.7188L22.9019 40.5537V49.2026L29.7783 46.1031C30.1426 47.5689 30.7716 48.9559 31.6343 50.1956L27.3284 58.9374L32.618 61.9905L38.019 53.8705C39.5241 54.0015 41.0405 53.8537 42.492 53.4343L43.2436 60.9418L50.7233 56.6174L51.4843 48.2654C53.8188 47.4136 55.8869 45.9602 57.4792 44.0522L61.3582 45.4164L66.6478 36.257L63.3998 33.473C64.1049 31.1515 64.3662 28.7179 64.1701 26.2996L71.028 21.4183ZM46.9649 43.0036C41.2299 46.3165 37.6849 43.9316 37.6849 37.3335C37.6849 30.7354 42.427 22.5783 48.1713 19.2653C53.9157 15.9523 57.3864 18.3373 57.3864 24.9911C57.3864 31.6448 52.7093 39.6813 46.9649 43.0036Z" fill="#E0E0E0"/>
<path d="M67.3531 3.46145L61.3397 0L55.9387 8.12001L61.9522 11.5907L67.3531 3.46145Z" fill="#F5F5F5"/>
<path d="M77.0506 16.2493L71.0279 12.7786L64.1514 15.8781L70.1741 19.3489L77.0506 16.2493Z" fill="#F5F5F5"/>
<path d="M49.2385 64.4126L43.2251 60.9419L42.4734 53.4343L48.4868 56.905L49.2385 64.4126Z" fill="#E0E0E0"/>
<path d="M27.3005 58.9374L33.3233 62.4081L37.657 53.6756L31.6343 50.2049L27.3005 58.9374Z" fill="#E0E0E0"/>
<path d="M77.0507 24.9354V16.2957L70.1742 19.3674C69.8138 17.9003 69.1845 16.5127 68.3182 15.2749L72.652 6.54245L67.3624 3.48004L61.9614 11.6093C60.4563 11.4733 58.9389 11.6212 57.4884 12.0455L56.7275 4.51941L49.2478 8.84389L48.4868 17.1959C46.8613 18.6407 45.3647 20.2243 44.0139 21.9287L38.6129 20.0727L33.3233 29.2414L37.657 32.9534C36.8538 34.9726 36.2326 37.0597 35.801 39.1895L28.9246 44.0244V52.6734L35.801 49.5739C36.1613 51.0411 36.7906 52.4287 37.657 53.6664L33.3233 62.3988L38.6129 65.452L44.0139 57.332C45.519 57.4635 47.0355 57.3156 48.4868 56.8958L49.2478 64.4033L56.7275 60.0788L57.4792 51.7268C59.107 50.2844 60.6038 48.7006 61.9521 46.994L67.3531 48.85L72.6427 39.6906L68.3089 35.9786C69.112 33.9593 69.7331 31.8723 70.1649 29.7425L77.0507 24.9354ZM52.9876 46.5207C47.2433 49.8337 42.5847 47.1425 42.5847 40.5166C42.5847 33.8906 47.2247 25.8263 52.9876 22.5041C58.7505 19.1818 63.3813 21.8823 63.3813 28.5082C63.3813 35.1342 58.7227 43.1521 52.9876 46.4743V46.5207Z" fill="#EBEBEB"/>
<path d="M38.0003 18.4765L44.0138 21.9472L38.6128 20.0634L32.5994 16.5834L38.0003 18.4765Z" fill="#F0F0F0"/>
<path d="M32.5989 16.5929L27.3079 25.7646L33.3286 29.2379L38.6196 20.0662L32.5989 16.5929Z" fill="#F5F5F5"/>
<path d="M27.3005 25.7521L33.3233 29.2228L37.657 32.9534L31.6343 29.4919L27.3005 25.7521Z" fill="#E0E0E0"/>
<path d="M29.7783 35.7281L35.8011 39.1988L28.9246 44.0337L22.9019 40.563L29.7783 35.7281Z" fill="#F5F5F5"/>
<path d="M22.9019 40.563L28.9246 44.0337V52.6827L22.9019 49.212V40.563Z" fill="#E0E0E0"/>
<path d="M56.7275 4.51943L50.7048 1.04871L43.2251 5.37319L49.2385 8.84392L56.7275 4.51943Z" fill="#F5F5F5"/>
<path d="M133.937 252.342L221.169 201.97C221.362 201.903 221.528 201.777 221.646 201.611C221.764 201.445 221.827 201.246 221.827 201.042C221.827 200.839 221.764 200.64 221.646 200.474C221.528 200.307 221.362 200.182 221.169 200.114L213.105 195.474C212.606 195.223 212.054 195.092 211.495 195.092C210.936 195.092 210.384 195.223 209.885 195.474L122.625 245.8C122.433 245.867 122.266 245.993 122.149 246.159C122.031 246.325 121.968 246.524 121.968 246.728C121.968 246.931 122.031 247.13 122.149 247.296C122.266 247.463 122.433 247.588 122.625 247.656L130.717 252.296C131.213 252.554 131.763 252.693 132.322 252.701C132.881 252.709 133.434 252.586 133.937 252.342Z" fill="#E0E0E0"/>
<path d="M218.775 7.48896L140.118 52.9053C138.949 53.6684 137.975 54.6962 137.277 55.9054C136.579 57.1146 136.176 58.4712 136.1 59.8654V246.459C136.1 249.02 137.9 250.059 140.118 248.779L218.775 203.362C219.946 202.601 220.92 201.573 221.619 200.364C222.317 199.154 222.72 197.797 222.793 196.402V9.80896C222.793 7.24768 221.002 6.20832 218.775 7.48896Z" fill="#455A64"/>
<path d="M140.118 52.9054L218.775 7.48897C220.761 6.33825 222.404 7.05281 222.738 9.04801C222.552 7.79358 222.103 6.59265 221.42 5.52421C220.737 4.45577 219.836 3.54402 218.775 2.84896L215.509 0.992958C214.263 0.361176 212.887 0.0319214 211.49 0.0319214C210.094 0.0319214 208.717 0.361176 207.472 0.992958L128.806 46.3722C127.621 47.1152 126.644 48.1465 125.966 49.3697L137.278 55.8657C137.956 54.6521 138.934 53.6328 140.118 52.9054Z" fill="#37474F"/>
<path d="M124.769 239.925C124.845 241.32 125.248 242.676 125.946 243.885C126.644 245.095 127.618 246.122 128.787 246.885L132.063 248.741C133.196 249.309 134.437 249.63 135.704 249.684C136.97 249.739 138.234 249.525 139.412 249.057C137.556 249.781 136.081 248.714 136.081 246.421V59.8653C136.127 58.4652 136.533 57.1007 137.259 55.9027L125.947 49.4067C125.231 50.5956 124.826 51.9455 124.769 53.3322V239.925Z" fill="#263238"/>
<path d="M142.28 77.7665L216.641 34.8464C217.977 34.0855 219.054 34.7072 219.054 36.2384V174.344C219.009 175.181 218.767 175.995 218.348 176.721C217.928 177.447 217.344 178.063 216.641 178.52L142.308 221.44C140.971 222.21 139.895 221.588 139.895 220.048V81.9425C139.937 81.1082 140.175 80.2955 140.589 79.57C141.004 78.8446 141.583 78.2268 142.28 77.7665Z" fill="white"/>
<path d="M179.446 37.2685C179.036 37.538 178.695 37.9 178.45 38.3256C178.205 38.7511 178.063 39.2282 178.036 39.7184C178.036 40.6464 178.667 40.9898 179.446 40.5351C179.858 40.2673 180.201 39.9056 180.446 39.4797C180.692 39.0539 180.832 38.5759 180.857 38.0852C180.857 37.185 180.226 36.8231 179.446 37.2685Z" fill="#37474F"/>
<path d="M179.446 206.582C177.824 207.644 176.475 209.072 175.507 210.752C174.54 212.432 173.982 214.316 173.878 216.252C173.878 219.806 176.375 221.254 179.446 219.472C181.068 218.411 182.417 216.982 183.385 215.302C184.352 213.622 184.91 211.738 185.014 209.803C185.033 206.248 182.527 204.801 179.446 206.582Z" fill="#37474F"/>
<path d="M166.093 51.634C165.277 52.1754 164.6 52.9009 164.117 53.7521C163.633 54.6032 163.356 55.5561 163.309 56.5339C163.309 58.3342 164.571 59.0673 166.093 58.1671C166.917 57.6309 167.603 56.9076 168.095 56.0562C168.586 55.2047 168.87 54.2492 168.923 53.2673C168.923 51.467 167.661 50.7339 166.093 51.634Z" fill="#37474F"/>
<path d="M173.025 51.0215C173.025 52.2279 173.953 52.6826 175.038 52.0423L193.598 41.3053C194.173 40.9463 194.655 40.4565 195.005 39.876C195.355 39.2955 195.563 38.6406 195.612 37.9645C195.612 36.7674 194.684 36.3127 193.598 36.953L175.038 47.69C174.465 48.0481 173.983 48.5363 173.634 49.1152C173.284 49.694 173.075 50.347 173.025 51.0215Z" fill="#37474F"/>
<path d="M131.042 83.7429C131.7 84.1718 132.249 84.7499 132.642 85.4303C133.035 86.1107 133.263 86.8743 133.306 87.659C133.306 89.1067 132.295 89.6913 131.042 88.9675C130.386 88.537 129.84 87.9583 129.448 87.278C129.056 86.5978 128.83 85.8351 128.787 85.0513C128.787 83.6129 129.798 83.0283 131.042 83.7429Z" fill="#37474F"/>
<path d="M131.042 101.171C131.7 101.6 132.249 102.178 132.642 102.858C133.035 103.539 133.263 104.302 133.306 105.087C133.306 106.525 132.295 107.11 131.042 106.395C130.386 105.965 129.84 105.386 129.448 104.706C129.056 104.026 128.83 103.263 128.787 102.479C128.787 101.032 129.798 100.447 131.042 101.171Z" fill="#37474F"/>
<path d="M130.337 84.0955C130.995 84.5245 131.543 85.1026 131.937 85.783C132.33 86.4634 132.558 87.2269 132.601 88.0117C132.601 89.4501 131.589 90.0347 130.337 89.3202C129.678 88.8912 129.13 88.3131 128.736 87.6327C128.343 86.9523 128.115 86.1887 128.072 85.404C128.082 83.9563 129.093 83.3995 130.337 84.0955Z" fill="#455A64"/>
<path d="M130.337 101.514C130.996 101.944 131.545 102.524 131.939 103.206C132.332 103.888 132.559 104.653 132.601 105.44C132.601 106.878 131.589 107.463 130.337 106.739C129.676 106.311 129.127 105.734 128.733 105.053C128.34 104.372 128.113 103.608 128.072 102.823C128.082 101.384 129.093 100.8 130.337 101.514Z" fill="#455A64"/>
<path d="M234.106 40.6094C234.106 39.0689 233.029 38.4471 231.693 39.2174L222.793 44.3492L157.36 82.1374C156.657 82.5941 156.072 83.2104 155.653 83.9361C155.234 84.6619 154.992 85.4764 154.947 86.3134V224.381C154.947 225.922 156.024 226.544 157.36 225.773L222.821 187.976L231.693 182.853C232.396 182.397 232.981 181.78 233.4 181.055C233.819 180.329 234.061 179.514 234.106 178.677V40.6094Z" fill="white"/>
<path d="M235.034 40.6093C235.092 40.1439 235.012 39.6717 234.803 39.2516C234.595 38.8315 234.267 38.4822 233.861 38.2475C233.455 38.0128 232.989 37.903 232.52 37.9319C232.052 37.9608 231.603 38.1271 231.229 38.41L222.738 43.3191L156.896 81.3671C156.048 81.9022 155.344 82.6354 154.842 83.5036C154.341 84.3718 154.059 85.3488 154.019 86.3505V224.381C153.982 224.845 154.071 225.309 154.277 225.726C154.483 226.143 154.798 226.496 155.189 226.748C155.521 226.941 155.899 227.04 156.284 227.036C156.828 227.019 157.358 226.862 157.824 226.581L223.712 188.533L232.185 183.642C233.028 183.102 233.729 182.367 234.229 181.5C234.73 180.633 235.015 179.659 235.062 178.659L235.034 40.6093ZM222.756 186.946L221.995 187.391L156.933 224.957C156.824 225.041 156.697 225.099 156.562 225.128C156.427 225.157 156.288 225.156 156.154 225.124C156.033 225.05 155.912 224.79 155.912 224.363V86.3134C155.96 85.6396 156.161 84.9855 156.498 84.4003C156.836 83.8152 157.302 83.3143 157.861 82.9355L222.858 45.3514L232.138 39.9783C232.248 39.8943 232.374 39.8357 232.509 39.8068C232.644 39.7779 232.784 39.7794 232.918 39.8112C233.039 39.8855 233.159 40.1453 233.159 40.5722V178.677C233.111 179.351 232.911 180.005 232.573 180.59C232.236 181.176 231.77 181.676 231.21 182.055L222.738 186.946H222.756Z" fill="#3444F1"/>
<path d="M194.527 72.6903C202.879 67.8833 209.607 71.7623 209.607 81.4042C209.607 91.0462 202.851 102.748 194.527 107.518C186.202 112.288 179.447 108.446 179.447 98.8135C179.447 89.1809 186.202 77.5066 194.527 72.6903Z" fill="#3444F1"/>
<path d="M194.527 80.2628C197.227 78.7038 199.417 79.9658 199.417 83.0468C199.325 84.7441 198.835 86.3958 197.985 87.868C197.135 89.3401 195.95 90.5911 194.527 91.5195C191.826 93.0785 189.636 91.8164 189.636 88.7355C189.728 87.0382 190.218 85.3865 191.068 83.9143C191.918 82.4422 193.103 81.1912 194.527 80.2628Z" fill="#3444F1"/>
<path d="M204.057 96.8926C204.057 91.7701 200.466 89.6914 196.021 92.2526L193.237 93.8581C188.801 96.4194 185.2 102.656 185.2 107.778V109.161C187.771 110.005 191 109.551 194.48 107.518C198.335 105.14 201.595 101.912 204.011 98.0805L204.057 96.8926Z" fill="#3444F1"/>
<path opacity="0.7" d="M194.527 80.2628C197.227 78.7038 199.417 79.9658 199.417 83.0468C199.325 84.7441 198.835 86.3958 197.985 87.868C197.135 89.3401 195.95 90.5911 194.527 91.5195C191.826 93.0785 189.636 91.8164 189.636 88.7355C189.728 87.0382 190.218 85.3865 191.068 83.9143C191.918 82.4422 193.103 81.1912 194.527 80.2628Z" fill="white"/>
<path opacity="0.7" d="M204.057 96.8926C204.057 91.7701 200.466 89.6914 196.021 92.2526L193.237 93.8581C188.801 96.4194 185.2 102.656 185.2 107.778V109.161C187.771 110.005 191 109.551 194.48 107.518C198.335 105.14 201.595 101.912 204.011 98.0805L204.057 96.8926Z" fill="white"/>
<path d="M165.35 128.723L184.755 117.522C185.683 117.012 186.36 117.42 186.36 118.45V119.09C186.331 119.648 186.17 120.191 185.891 120.675C185.612 121.159 185.223 121.57 184.755 121.874L165.35 133.075C164.468 133.586 163.745 133.168 163.745 132.147V131.507C163.775 130.95 163.936 130.407 164.215 129.923C164.494 129.44 164.883 129.028 165.35 128.723Z" fill="#3444F1"/>
<path opacity="0.1" d="M165.35 128.723L184.755 117.522C185.683 117.012 186.36 117.42 186.36 118.45V119.09C186.331 119.648 186.17 120.191 185.891 120.675C185.612 121.159 185.223 121.57 184.755 121.874L165.35 133.075C164.468 133.586 163.745 133.168 163.745 132.147V131.507C163.775 130.95 163.936 130.407 164.215 129.923C164.494 129.44 164.883 129.028 165.35 128.723Z" fill="black"/>
<path d="M164.552 142.244L223.257 108.353C223.694 108.094 224.055 108.298 224.055 108.817V115.666C224.039 115.944 223.959 116.214 223.82 116.456C223.682 116.697 223.489 116.904 223.257 117.058L164.552 150.949C164.107 151.209 163.745 150.995 163.745 150.485V143.636C163.761 143.357 163.842 143.085 163.982 142.844C164.122 142.602 164.318 142.396 164.552 142.244Z" fill="#3444F1"/>
<path opacity="0.2" d="M164.552 142.244L223.257 108.353C223.694 108.094 224.055 108.298 224.055 108.817V115.666C224.039 115.944 223.959 116.214 223.82 116.456C223.682 116.697 223.489 116.904 223.257 117.058L164.552 150.949C164.107 151.209 163.745 150.995 163.745 150.485V143.636C163.761 143.357 163.842 143.085 163.982 142.844C164.122 142.602 164.318 142.396 164.552 142.244Z" fill="white"/>
<path d="M165.35 159.189L184.755 147.988C185.683 147.478 186.36 147.896 186.36 148.916V149.557C186.331 150.115 186.171 150.658 185.892 151.142C185.613 151.626 185.223 152.036 184.755 152.341L165.35 163.542C164.468 164.061 163.745 163.644 163.745 162.614V161.973C163.776 161.416 163.938 160.874 164.217 160.391C164.495 159.907 164.884 159.496 165.35 159.189Z" fill="#3444F1"/>
<path opacity="0.1" d="M165.35 159.189L184.755 147.988C185.683 147.478 186.36 147.896 186.36 148.916V149.557C186.331 150.115 186.171 150.658 185.892 151.142C185.613 151.626 185.223 152.036 184.755 152.341L165.35 163.542C164.468 164.061 163.745 163.644 163.745 162.614V161.973C163.776 161.416 163.938 160.874 164.217 160.391C164.495 159.907 164.884 159.496 165.35 159.189Z" fill="black"/>
<path d="M164.552 172.71L223.257 138.82C223.694 138.56 224.055 138.773 224.055 139.284V146.132C224.039 146.41 223.959 146.681 223.82 146.922C223.682 147.164 223.489 147.37 223.257 147.524L164.552 181.415C164.107 181.675 163.745 181.471 163.745 180.951V174.102C163.761 173.823 163.842 173.552 163.982 173.31C164.122 173.068 164.318 172.863 164.552 172.71Z" fill="#3444F1"/>
<path opacity="0.2" d="M164.552 172.71L223.257 138.82C223.694 138.56 224.055 138.773 224.055 139.284V146.132C224.039 146.41 223.959 146.681 223.82 146.922C223.682 147.164 223.489 147.37 223.257 147.524L164.552 181.415C164.107 181.675 163.745 181.471 163.745 180.951V174.102C163.761 173.823 163.842 173.552 163.982 173.31C164.122 173.068 164.318 172.863 164.552 172.71Z" fill="white"/>
<path d="M187.966 176.599L211.166 163.226C212.094 162.706 212.78 163.124 212.78 164.154V171.318C212.75 171.877 212.588 172.42 212.307 172.904C212.026 173.388 211.635 173.799 211.166 174.102L187.966 187.484C187.038 187.995 186.36 187.577 186.36 186.556V179.383C186.392 178.826 186.554 178.284 186.833 177.801C187.112 177.317 187.5 176.906 187.966 176.599Z" fill="#3444F1"/>
<path opacity="0.1" d="M187.966 176.599L211.166 163.226C212.094 162.706 212.78 163.124 212.78 164.154V171.318C212.75 171.877 212.588 172.42 212.307 172.904C212.026 173.388 211.635 173.799 211.166 174.102L187.966 187.484C187.038 187.995 186.36 187.577 186.36 186.556V179.383C186.392 178.826 186.554 178.284 186.833 177.801C187.112 177.317 187.5 176.906 187.966 176.599Z" fill="black"/>
<path d="M242.903 146.364C242.903 146.364 231.507 130.644 230.839 128.732C230.31 127.322 230.839 125.224 231.006 124.25C231.173 123.276 231.322 121.104 231.489 120.538C231.767 119.48 230.403 119.694 229.633 120.659C228.863 121.624 228.603 123.554 228.204 123.87C227.805 124.185 224.77 119.759 223.183 117.717C221.596 115.675 220.603 114.432 219.629 115.193C218.933 115.74 219.453 116.928 220.603 118.673C221.275 119.612 221.895 120.588 222.459 121.596C222.636 121.976 221.689 122.004 221.179 122.793C220.78 123.406 221.179 124.399 220.622 124.872C220.279 125.133 220.044 125.51 219.962 125.933C219.88 126.356 219.956 126.794 220.176 127.164C221.209 128.786 222.542 130.197 224.102 131.321C225.809 132.5 226.496 132.918 227.508 134.523C228.519 136.128 237.595 152.526 238.207 153.51C238.82 154.494 239.999 156.498 241.79 156.554C243.581 156.609 258.243 143.989 258.995 143.358C261.408 141.344 262.178 141.056 262.586 142.866C262.727 143.509 262.832 144.16 262.902 144.815C263.189 147.116 264.758 155.338 264.758 155.338C264.758 155.338 272.182 158.929 278.279 157.194C284.376 155.459 286.436 152.87 286.436 152.87L283.383 147.896C284.209 145.845 288.023 137.53 289.257 131.711L270.14 128.621C269.75 128.537 269.119 128.38 268.284 128.166C267.235 127.888 264.572 126.969 262.558 128.732C255.988 134.458 242.922 146.364 242.922 146.364" fill="#FFA8A7"/>
<path d="M280.803 242.821L277.378 247.581C278.935 248.308 280.635 248.673 282.352 248.649C285.424 248.76 286.269 247.721 286.38 247.517C286.9 246.403 286.092 244.398 285.87 242.672L280.803 242.821Z" fill="#37474F"/>
<path d="M277.573 245.299C277.573 245.299 273.416 245.029 270.548 244.677C267.681 244.324 265.407 245.716 266.076 246.895C266.744 248.073 268.331 249.057 270.799 249.883C272.906 250.597 275.439 251.108 277.629 251.739C279.819 252.37 281.341 253.196 282.613 252.75C284.032 252.259 284.645 251.692 284.524 250.653C284.214 249.175 283.83 247.713 283.373 246.273L277.573 245.299Z" fill="#37474F"/>
<path d="M286.38 238.042C286.38 238.042 285.86 242.366 285.823 243.294C285.786 244.222 281.601 244.519 280.803 242.821L280.673 237.531L286.38 238.042Z" fill="#F28F8F"/>
<path d="M282.167 240.696L283.661 247.266C283.661 247.266 283.8 248.064 280.385 248.574C276.97 249.085 271.606 246.783 270.688 246.319C269.769 245.855 269.667 244.918 273.026 245.104C276.386 245.289 277.573 245.299 277.573 245.299L276.478 242.394L282.167 240.696Z" fill="#FFA8A7"/>
<path d="M289.201 131.656L291.568 130.997C291.568 130.997 296.514 146.652 297.061 148.165C297.609 149.677 298.231 151.273 297.163 153.139C295.892 155.357 289.201 164.275 289.201 164.275L284.951 160.117L289.777 151.283L285.508 142.652L289.201 131.656Z" fill="#F28F8F"/>
<path d="M264.897 111.323C264.342 110.282 264.061 109.116 264.078 107.937C264.096 106.757 264.413 105.601 264.999 104.576C267.356 100.206 272.609 98.0804 278.863 98.8878C281.759 99.2683 285.174 101.672 287.039 105.263C289.099 109.244 289.294 117.262 289.823 120.297L264.897 111.323Z" fill="#37474F"/>
<path d="M264.73 113.04C264.73 113.04 263.245 115.87 263.505 116.13C263.89 116.355 264.31 116.512 264.748 116.594L264.73 113.04Z" fill="#FFA8A7"/>
<path d="M269.24 104.094C267.625 105.143 264.841 107.073 264.72 113.43C264.591 119.926 265.519 122.069 266.484 122.821C267.133 123.331 270.947 123.072 272.581 122.691C274.214 122.311 278.919 119.981 280.617 116.446C282.612 112.288 282.204 106.238 279.244 104.382C277.737 103.491 276.029 102.997 274.279 102.946C272.529 102.896 270.795 103.291 269.24 104.094Z" fill="#FFA8A7"/>
<path d="M286.38 152.833C289.238 157.287 291.948 161.185 292.542 166.214C293.767 176.784 289.758 188.867 288.895 196.69C290.518 198.915 291.454 201.567 291.586 204.318C291.586 207.557 286.38 238.042 286.38 238.042C286.38 238.042 282.594 239.192 280.673 237.531L277.1 181.452L278.956 174.622L286.38 152.833Z" fill="#3444F1"/>
<path opacity="0.2" d="M286.38 152.833C289.238 157.287 291.948 161.185 292.542 166.214C293.767 176.784 289.758 188.867 288.895 196.69C290.518 198.915 291.454 201.567 291.586 204.318C291.586 207.557 286.38 238.042 286.38 238.042C286.38 238.042 282.594 239.192 280.673 237.531L277.1 181.452L278.956 174.622L286.38 152.833Z" fill="black"/>
<path d="M277.1 181.452L278.956 174.622C282.51 173.686 285.937 172.325 289.164 170.567C289.164 170.567 287.234 174.084 281.684 176.014L278.817 184.784L278.576 204.875L277.1 181.452Z" fill="#3444F1"/>
<path opacity="0.3" d="M277.1 181.452L278.956 174.622C282.51 173.686 285.937 172.325 289.164 170.567C289.164 170.567 287.234 174.084 281.684 176.014L278.817 184.784L278.576 204.875L277.1 181.452Z" fill="black"/>
<path d="M286.38 152.833C287.911 155.338 291.568 159.607 290.788 163.718C289.86 168.692 287.169 172.191 278.984 174.622L271.3 202.462C271.3 202.462 275.3 206.174 276.525 209.765C277.75 213.357 282.167 240.714 282.167 240.714C282.167 240.714 280.794 242.951 276.478 242.412C276.478 242.412 261.435 208.076 260.377 205.84C259.093 203.575 258.644 200.932 259.106 198.37C259.579 194.769 264.674 155.357 264.674 155.357L286.38 152.833Z" fill="#3444F1"/>
<path opacity="0.2" d="M286.38 152.833C287.911 155.338 291.568 159.607 290.788 163.718C289.86 168.692 287.169 172.191 278.984 174.622L271.3 202.462C271.3 202.462 275.3 206.174 276.525 209.765C277.75 213.357 282.167 240.714 282.167 240.714C282.167 240.714 280.794 242.951 276.478 242.412C276.478 242.412 261.435 208.076 260.377 205.84C259.093 203.575 258.644 200.932 259.106 198.37C259.579 194.769 264.674 155.357 264.674 155.357L286.38 152.833Z" fill="black"/>
<path d="M289.201 131.656L270.084 128.565C269.695 128.482 269.064 128.324 268.228 128.111C268.228 128.111 267.412 140.1 262.503 142.847C262.623 143.423 262.725 144.063 262.818 144.796C263.106 147.097 264.674 155.32 264.674 155.32C264.674 155.32 272.098 158.911 278.195 157.176C284.292 155.44 286.352 152.851 286.352 152.851L283.299 147.877C284.153 145.808 287.995 137.493 289.201 131.656Z" fill="#3444F1"/>
<path opacity="0.7" d="M289.201 131.656L270.084 128.565C269.695 128.482 269.064 128.324 268.228 128.111C268.228 128.111 267.412 140.1 262.503 142.847C262.623 143.423 262.725 144.063 262.818 144.796C263.106 147.097 264.674 155.32 264.674 155.32C264.674 155.32 272.098 158.911 278.195 157.176C284.292 155.44 286.352 152.851 286.352 152.851L283.299 147.877C284.153 145.808 287.995 137.493 289.201 131.656Z" fill="white"/>
<path d="M284.162 145.9C281.623 147.425 278.963 148.738 276.209 149.826C278.709 149.776 281.156 149.099 283.327 147.858L284.162 145.9Z" fill="#3444F1"/>
<path d="M268.767 104.409C268.767 104.409 267.839 110.441 270.029 113.986C270.029 113.986 270.845 111.583 272.878 112.038C274.91 112.492 275.021 115.174 273.592 116.678C273.229 117.099 272.754 117.41 272.222 117.574C271.69 117.738 271.123 117.749 270.585 117.606C270.585 117.606 270.261 121.967 270.084 125.623C269.908 129.28 268.943 137.251 273.054 140.472C277.165 143.692 287.484 144.824 292.319 138.068C295.01 134.31 291.438 127.665 289.776 120.213C288.245 113.365 287.382 103.212 280.116 101.579C272.85 99.9457 268.767 104.409 268.767 104.409Z" fill="#37474F"/>
<path d="M295.428 21.9937L293.897 22.9217C294.026 22.3768 294.097 21.8201 294.11 21.2605C294.11 18.1517 291.93 16.8989 289.238 18.4765C288.419 18.9705 287.689 19.5978 287.076 20.3325C287.076 16.1565 284.144 14.4583 280.524 16.5463C278.617 17.7901 277.03 19.4659 275.892 21.4378C274.754 23.4097 274.096 25.6222 273.973 27.8957C273.973 28.1092 273.973 28.3133 273.973 28.5175C273.04 28.4002 272.097 28.6172 271.309 29.13C269.891 30.054 268.711 31.2994 267.865 32.7651C267.018 34.2308 266.529 35.8754 266.437 37.5655C266.437 37.9584 266.477 38.3503 266.558 38.7348L265.741 39.2081C263.523 40.4887 261.723 42.985 261.723 44.7761C261.723 46.5671 263.523 46.994 265.741 45.7041L295.437 28.5825C297.655 27.3018 299.456 24.8055 299.456 23.0145C299.456 21.2234 297.646 20.7037 295.428 21.9937Z" fill="#EBEBEB"/>
</svg>
