<svg width="219" height="227" viewBox="0 0 219 227" fill="none" xmlns="http://www.w3.org/2000/svg">
<path d="M0.201437 94.954C0.201437 94.954 -3.99439 135.442 25.9129 169.011C55.8202 202.581 102.076 213.826 139.387 223.933C176.699 234.04 208.535 218.503 217.301 187.124C226.067 155.746 198.574 140.513 187.986 100.673C177.398 60.8329 180.425 49.0509 150.472 19.839C120.519 -9.37299 66.9601 -5.87585 34.5677 27.3646C2.17535 60.6051 0.201437 94.954 0.201437 94.954Z" fill="#3444F1"/>
<path d="M149.018 29.6372H68.1723C64.1216 29.6372 60.8379 32.9209 60.8379 36.9716V208.694C60.8379 212.745 64.1216 216.029 68.1723 216.029H149.018C153.068 216.029 156.352 212.745 156.352 208.694V36.9716C156.352 32.9209 153.068 29.6372 149.018 29.6372Z" fill="#263238"/>
<path d="M111.835 210.639C111.835 209.996 111.645 209.368 111.288 208.834C110.931 208.3 110.423 207.883 109.829 207.638C109.235 207.392 108.582 207.328 107.952 207.454C107.322 207.58 106.743 207.889 106.289 208.344C105.835 208.799 105.526 209.378 105.401 210.008C105.277 210.639 105.342 211.292 105.588 211.885C105.835 212.479 106.252 212.986 106.787 213.342C107.321 213.698 107.95 213.888 108.592 213.887C109.019 213.888 109.441 213.804 109.835 213.641C110.23 213.478 110.588 213.239 110.889 212.937C111.19 212.635 111.429 212.277 111.591 211.882C111.754 211.488 111.837 211.065 111.835 210.639V210.639Z" stroke="white" stroke-linecap="round" stroke-linejoin="round"/>
<path d="M149.018 29.6372H68.1723C64.1216 29.6372 60.8379 32.9209 60.8379 36.9716V208.694C60.8379 212.745 64.1216 216.029 68.1723 216.029H149.018C153.068 216.029 156.352 212.745 156.352 208.694V36.9716C156.352 32.9209 153.068 29.6372 149.018 29.6372Z" stroke="#263238" stroke-linecap="round" stroke-linejoin="round"/>
<path d="M152.099 42.2957H65.0809V204.966H152.099V42.2957Z" fill="white" stroke="#263238" stroke-linecap="round" stroke-linejoin="round"/>
<path d="M149.139 43.9828H141.926V47.9379H149.139V43.9828Z" stroke="#263238" stroke-width="0.821067" stroke-linecap="round" stroke-linejoin="round"/>
<path d="M147.553 43.9828H141.926V47.9379H147.553V43.9828Z" fill="#263238" stroke="#263238" stroke-width="0.725073" stroke-linecap="round" stroke-linejoin="round"/>
<path d="M150.139 45.089H149.124V46.8317H150.139V45.089Z" fill="#263238" stroke="#263238" stroke-width="0.725073" stroke-linecap="round" stroke-linejoin="round"/>
<path d="M68.3642 45.2103H67.0408V47.4783H68.3642V45.2103Z" fill="#263238" stroke="#263238" stroke-width="0.883086" stroke-linecap="round" stroke-linejoin="round"/>
<path d="M70.4454 44.4122H69.1219V47.4783H70.4454V44.4122Z" fill="#263238" stroke="#263238" stroke-width="0.883086" stroke-linecap="round" stroke-linejoin="round"/>
<path d="M72.5214 43.4727H71.198V47.4783H72.5214V43.4727Z" fill="#263238" stroke="#263238" stroke-width="0.883086" stroke-linecap="round" stroke-linejoin="round"/>
<path d="M150.043 50.1403H66.4852V56.4241H150.043V50.1403Z" fill="#3444F1"/>
<path d="M145.042 139.573H119.362C118.52 139.573 117.714 139.907 117.119 140.502C116.524 141.097 116.19 141.904 116.19 142.745V145.897L109.845 148.751L116.19 150.453V152.423C116.19 153.264 116.524 154.071 117.119 154.666C117.714 155.261 118.52 155.595 119.362 155.595H145.068C145.909 155.595 146.716 155.261 147.311 154.666C147.906 154.071 148.24 153.264 148.24 152.423V142.75C148.241 142.331 148.158 141.916 147.997 141.529C147.837 141.142 147.601 140.79 147.304 140.495C147.006 140.199 146.653 139.966 146.265 139.807C145.877 139.649 145.462 139.569 145.042 139.573Z" fill="white" stroke="#263238" stroke-miterlimit="10"/>
<path d="M145.042 63.8039H119.362C118.521 63.8039 117.715 64.1374 117.12 64.7312C116.526 65.325 116.191 66.1306 116.19 66.971V70.128L109.845 72.982L116.19 74.6843V76.6543C116.19 77.4956 116.524 78.3024 117.119 78.8973C117.714 79.4922 118.52 79.8265 119.362 79.8265H145.068C145.909 79.8265 146.716 79.4922 147.311 78.8973C147.906 78.3024 148.24 77.4956 148.24 76.6543V66.9811C148.241 66.562 148.158 66.1469 147.997 65.7597C147.837 65.3726 147.601 65.0212 147.304 64.7258C147.006 64.4303 146.653 64.1968 146.265 64.0385C145.877 63.8803 145.462 63.8005 145.042 63.8039Z" fill="white" stroke="#263238" stroke-miterlimit="10"/>
<path d="M72.582 180.634H98.2879C99.1292 180.634 99.9361 180.969 100.531 181.564C101.126 182.158 101.46 182.965 101.46 183.807V186.959L107.804 189.813L101.46 191.515V193.485C101.46 194.326 101.126 195.133 100.531 195.728C99.9361 196.323 99.1292 196.657 98.2879 196.657H72.582C71.7407 196.657 70.9339 196.323 70.339 195.728C69.7441 195.133 69.4099 194.326 69.4099 193.485V183.827C69.4072 183.409 69.4873 182.994 69.6455 182.607C69.8037 182.219 70.037 181.867 70.3318 181.571C70.6266 181.274 70.9772 181.039 71.3634 180.878C71.7496 180.717 72.1638 180.634 72.582 180.634Z" fill="white" stroke="#263238" stroke-miterlimit="10"/>
<path d="M72.5821 103.855H98.288C99.1293 103.855 99.9361 104.189 100.531 104.784C101.126 105.379 101.46 106.186 101.46 107.027V110.179L107.805 113.033L101.46 114.736V116.706C101.46 117.547 101.126 118.354 100.531 118.949C99.9361 119.544 99.1293 119.878 98.288 119.878H72.5821C71.7408 119.878 70.9339 119.544 70.339 118.949C69.7441 118.354 69.4099 117.547 69.4099 116.706V107.022C69.4113 106.182 69.7461 105.376 70.3408 104.783C70.9356 104.189 71.7417 103.855 72.5821 103.855Z" fill="white" stroke="#263238" stroke-miterlimit="10"/>
<path d="M109.997 101.779C109.401 99.1476 107.097 89.2572 105.658 87.3175C103.996 85.0747 94.3783 79.8669 93.0043 78.9274C91.6304 77.9878 89.5341 77.2655 88.8825 77.2655C88.8825 77.2655 83.6039 79.0739 78.4011 80.4478C73.1983 81.8217 70.3191 82.7613 69.7231 84.4888C69.2179 86.0042 66.9095 98.7435 66.369 101.769L109.997 101.779Z" fill="#616161" stroke="#263238" stroke-linecap="round" stroke-linejoin="round"/>
<path d="M78.4466 100.875C78.2277 97.1002 78.0138 93.3285 77.8051 89.5603" stroke="#263238" stroke-linecap="round" stroke-linejoin="round"/>
<path d="M92.7872 88.8329C95.2471 88.4742 96.6211 83.9887 96.9848 82.1097C97.0353 81.8369 97.0858 81.6045 97.1312 81.3772C95.1714 80.2205 93.5145 79.281 93.0044 78.9274C91.6304 77.9878 89.5341 77.2655 88.8825 77.2655C88.8825 77.2655 86.958 77.9272 84.2859 78.7506C84.6445 79.5689 85.5588 81.5894 86.9328 84.2817C88.7411 87.8226 90.3322 89.2067 92.7872 88.8329Z" fill="white" stroke="#263238" stroke-linecap="round" stroke-linejoin="round"/>
<path d="M87.2913 70.6837C87.2913 70.6837 86.569 78.1343 86.4982 78.5687C86.4275 79.0031 87.4378 81.8924 89.1754 84.5696C90.913 87.2468 93.2164 87.0296 94.3782 84.711C95.2466 82.7741 95.948 80.7665 96.4745 78.7101C95.3506 78.4687 94.2942 77.9811 93.3814 77.2823C92.4687 76.5836 91.7223 75.6911 91.1959 74.6691C89.4633 71.1939 88.0136 69.6734 87.2913 70.6837Z" fill="#B2B2B2" stroke="#263238" stroke-linecap="round" stroke-linejoin="round"/>
<path d="M92.282 52.969C92.282 52.969 87.655 54.3429 85.9932 57.9596C84.6394 60.8995 85.4123 65.4809 85.9932 66.9963C86.5741 68.5117 86.7862 71.4818 87.8722 74.159C88.9583 76.8362 91.8476 80.2205 94.3075 80.7256C96.7675 81.2308 101.612 77.3261 102.895 75.5228C104.178 73.7195 103.764 70.6029 103.905 70.0978C104.046 69.5927 105.925 65.976 105.713 61.5107C105.501 57.0453 99.2982 51.7415 92.282 52.969Z" fill="#B2B2B2" stroke="#263238" stroke-linecap="round" stroke-linejoin="round"/>
<path d="M101.177 69.6027C101.177 69.6027 101.829 73.7953 100.814 74.2297C99.7983 74.6641 97.8485 74.0125 97.5605 73.4316" stroke="#263238" stroke-linecap="round" stroke-linejoin="round"/>
<path d="M96.9847 75.6743C95.8648 75.1514 94.894 74.356 94.1611 73.3608C94.1611 73.3608 92.5699 75.745 94.3075 76.3916C94.7699 76.5875 95.2844 76.6233 95.7695 76.4934C96.2545 76.3634 96.6822 76.0751 96.9847 75.6743Z" fill="#263238" stroke="#263238" stroke-linecap="round" stroke-linejoin="round"/>
<path d="M97.8282 69.4714C97.6514 70.0422 97.2776 70.4362 96.9897 70.3503C96.7018 70.2645 96.6159 69.729 96.7876 69.1532C96.9594 68.5773 97.3382 68.1884 97.6211 68.2743C97.904 68.3601 97.9999 68.8956 97.8282 69.4714Z" fill="#263238"/>
<path d="M102.89 70.2645C102.713 70.8403 102.339 71.2343 102.051 71.1434C101.763 71.0525 101.677 70.5221 101.849 69.9513C102.021 69.3805 102.4 68.9815 102.688 69.0674C102.975 69.1532 103.061 69.6937 102.89 70.2645Z" fill="#263238"/>
<path d="M99.2982 66.8953C99.1782 66.8965 99.0623 66.8513 98.9749 66.769C97.6263 65.4759 96.1159 66.668 96.0503 66.7185C96.0028 66.757 95.9483 66.7857 95.8897 66.8031C95.8312 66.8205 95.7698 66.8262 95.7091 66.8199C95.6483 66.8136 95.5894 66.7953 95.5357 66.7662C95.482 66.7371 95.4346 66.6977 95.3961 66.6503C95.3576 66.6029 95.3289 66.5483 95.3115 66.4898C95.2941 66.4313 95.2884 66.3699 95.2947 66.3091C95.3011 66.2484 95.3193 66.1895 95.3484 66.1358C95.3775 66.0821 95.4169 66.0346 95.4643 65.9962C96.0476 65.4976 96.7942 65.2318 97.5613 65.2495C98.3283 65.2672 99.0619 65.5672 99.6215 66.0921C99.7088 66.1801 99.7578 66.2991 99.7578 66.423C99.7578 66.5469 99.7088 66.6659 99.6215 66.7539C99.5796 66.7976 99.5295 66.8326 99.474 66.8568C99.4185 66.8811 99.3588 66.8942 99.2982 66.8953Z" fill="#263238"/>
<path d="M104.647 68.4965C104.569 68.4963 104.493 68.4768 104.424 68.4398C104.355 68.4028 104.297 68.3494 104.253 68.2844C104.161 68.1005 104.03 67.9391 103.868 67.8117C103.707 67.6843 103.519 67.5939 103.319 67.5469C102.969 67.5322 102.625 67.6473 102.354 67.8702C102.309 67.911 102.256 67.9424 102.198 67.9627C102.14 67.983 102.079 67.9918 102.018 67.9885C101.958 67.9852 101.898 67.9699 101.843 67.9436C101.788 67.9172 101.738 67.8802 101.697 67.8348C101.657 67.7894 101.625 67.7363 101.605 67.6787C101.585 67.6212 101.576 67.5601 101.579 67.4992C101.582 67.4382 101.598 67.3784 101.624 67.3234C101.65 67.2683 101.687 67.2189 101.733 67.1781C101.966 66.9753 102.238 66.8216 102.533 66.7261C102.827 66.6306 103.137 66.5954 103.445 66.6225C103.781 66.6828 104.099 66.8181 104.376 67.0184C104.652 67.2187 104.88 67.4788 105.041 67.7792C105.087 67.8497 105.113 67.9312 105.116 68.015C105.119 68.0989 105.099 68.182 105.059 68.2556C105.018 68.3291 104.959 68.3903 104.886 68.4328C104.814 68.4752 104.731 68.4972 104.647 68.4965Z" fill="#263238"/>
<path d="M86.1144 67.3651C86.1447 67.456 86.17 67.5469 86.1952 67.6429V67.7035C86.2255 67.8045 86.2508 67.9106 86.276 68.0167V68.047C86.276 68.1682 86.3316 68.2894 86.3569 68.4157L88.64 67.9106C88.64 67.9106 90.7363 68.345 91.0293 67.6227C91.3222 66.9003 89.9432 65.8143 90.9535 64.7334C91.9638 63.6524 94.7874 64.3697 95.0753 62.9957C95.3633 61.6218 96.0856 56.7069 101.945 58.2223C103.14 58.6114 104.285 59.1368 105.36 59.7882C103.935 55.7876 98.3991 51.8678 92.2567 52.9437C92.2567 52.9437 87.6298 54.3177 85.9679 57.9344C84.6142 60.8742 85.387 65.4557 85.9679 66.9711C86.0033 67.067 86.0386 67.1731 86.074 67.2792L86.1144 67.3651Z" fill="#263238" stroke="#263238" stroke-linecap="round" stroke-linejoin="round"/>
<path d="M89.6806 69.1683C89.6806 69.1683 89.029 66.3497 87.2913 66.0568C85.5537 65.7638 84.9071 67.8651 85.2708 69.7442C85.6345 71.6232 87.5085 73.3609 89.1755 72.8558" fill="#B2B2B2"/>
<path d="M89.6806 69.1683C89.6806 69.1683 89.029 66.3497 87.2913 66.0568C85.5537 65.7638 84.9071 67.8651 85.2708 69.7442C85.6345 71.6232 87.5085 73.3609 89.1755 72.8558" stroke="#263238" stroke-linecap="round" stroke-linejoin="round"/>
<path d="M95.4087 101.779C96.727 100.345 99.7932 97.0159 100.02 96.7886C100.248 96.5613 100.743 96.5006 102.405 96.0662C104.067 95.6318 106.814 94.6923 107.249 94.3286C107.9 93.9128 108.486 93.4021 108.986 92.8132C109.339 92.2319 109.653 91.6278 109.926 91.0049C110.143 90.6412 111.876 89.8481 112.31 89.4895C112.745 89.1309 113.179 88.4085 113.033 88.0448C112.886 87.6811 110.36 88.4085 108.047 88.9137C106.809 89.1996 105.551 89.3921 104.284 89.4895C104.284 89.4895 105.587 87.6104 106.38 86.7416C107.173 85.8728 106.885 83.9937 106.309 84.7211C105.733 85.4485 102.046 89.2066 101.258 89.4946C100.47 89.7825 98.6566 92.4596 97.4241 93.6921C96.4139 94.7024 88.2005 100.021 85.4526 101.774L95.4087 101.779Z" fill="#B2B2B2" stroke="#263238" stroke-linecap="round" stroke-linejoin="round"/>
<path d="M109.926 91.0049L107.466 91.8738" stroke="#263238" stroke-linecap="round" stroke-linejoin="round"/>
<path d="M150.649 101.779H67.7935" stroke="#263238" stroke-linecap="round" stroke-linejoin="round"/>
<path d="M150.452 138.593C150.2 136.668 149.124 129.127 147.538 125.662C146.776 123.976 145.664 122.471 144.277 121.246C142.89 120.022 141.259 119.106 139.491 118.56C136.587 117.681 132.798 116.938 130.904 117.206C130.904 117.206 124.615 119.373 121.913 119.979C119.21 120.585 116.407 122.479 115.255 124.106C114.245 125.55 108.951 136.254 107.804 138.593H150.452Z" fill="white" stroke="#263238" stroke-linecap="round" stroke-linejoin="round"/>
<path d="M150.452 138.593C150.2 136.668 149.124 129.127 147.538 125.662C146.776 123.976 145.664 122.471 144.277 121.246C142.89 120.022 141.259 119.106 139.491 118.56C136.587 117.681 132.798 116.938 130.904 117.206C130.904 117.206 126.595 118.691 123.575 119.545C122.63 121.019 120.508 124.293 118.523 127.081C115.998 130.617 114.987 135.729 116.356 138.593H150.452Z" fill="#3444F1" stroke="#263238" stroke-linecap="round" stroke-linejoin="round"/>
<path d="M126.848 113.286C127.466 115.646 127.694 118.091 127.525 120.524C127.252 124.651 125.09 127.288 125.903 129.384C126.716 131.481 129.944 132.289 132.798 130.061C135.652 127.834 136.177 122.353 136.248 119.918C136.319 117.484 137.465 109.917 137.465 109.917C137.465 109.917 134.435 113.498 130.899 113.634C127.363 113.771 126.848 113.286 126.848 113.286Z" fill="white" stroke="#263238" stroke-linecap="round" stroke-linejoin="round"/>
<path d="M127.59 93.9497C127.59 93.9497 123.044 94.758 120.968 98.7484C118.948 102.572 119.907 109.002 121.903 112.811C124.428 117.62 124.277 119.267 124.302 123.515C124.326 123.802 124.291 124.091 124.199 124.363C124.107 124.636 123.96 124.887 123.767 125.101C122.726 126.111 122.59 124.596 122.317 125.454C122.044 126.313 124.842 128.212 127.727 125.702C129.596 124.07 130.025 119.509 129.146 116.867C128.267 114.225 123.873 108.755 124.822 104.497C125.772 100.239 129.08 96.7229 129.368 95.0964C129.656 93.4699 127.59 93.9497 127.59 93.9497Z" fill="#263238"/>
<path d="M127.782 96.4249C127.782 96.4249 119.922 101.138 121.15 108.432C122.377 115.726 130.242 117.857 129.5 125.374" stroke="#636363" stroke-linecap="round" stroke-linejoin="round"/>
<path d="M127.59 93.9497C127.59 93.9497 123.044 94.758 120.968 98.7484C118.948 102.572 119.907 109.002 121.903 112.811C124.428 117.62 124.277 119.267 124.302 123.515C124.326 123.802 124.291 124.091 124.199 124.363C124.107 124.636 123.96 124.887 123.767 125.101C122.726 126.111 122.59 124.596 122.317 125.454C122.044 126.313 124.842 128.212 127.727 125.702C129.596 124.07 130.025 119.509 129.146 116.867C128.267 114.225 123.873 108.755 124.822 104.497C125.772 100.239 129.08 96.7229 129.368 95.0964C129.656 93.4699 127.59 93.9497 127.59 93.9497Z" stroke="#263238" stroke-linecap="round" stroke-linejoin="round"/>
<path d="M140.178 138.593H150.452V138.497V138.421V138.31V138.204V138.158V138.057V138.027V137.896V137.759V137.724V137.603V137.547C150.455 137.502 150.455 137.456 150.452 137.411V137.375C150.452 137.325 150.452 137.274 150.452 137.224V137.188C150.452 137.138 150.452 137.092 150.452 137.047V136.981C150.452 136.936 150.452 136.89 150.452 136.84V136.789L150.422 136.608L150.392 136.426V136.385L150.361 136.188C150.361 136.113 150.336 136.037 150.326 135.961C150.291 135.729 150.25 135.486 150.21 135.239C150.21 135.163 150.21 135.087 150.169 135.011V134.986C150.169 134.91 150.144 134.835 150.129 134.759V134.723C150.129 134.653 150.104 134.582 150.088 134.506V134.451C150.088 134.385 150.088 134.319 150.053 134.254V134.173L150.023 133.996V133.905L149.993 133.733V133.648C149.993 133.587 149.967 133.526 149.957 133.466V133.38C149.957 133.319 149.932 133.259 149.922 133.198V133.107C149.922 133.046 149.922 132.991 149.886 132.93V132.839C149.886 132.779 149.886 132.718 149.851 132.657V132.562C149.851 132.506 149.826 132.445 149.816 132.385V132.289C149.816 132.228 149.79 132.173 149.775 132.112V132.016C149.775 131.955 149.775 131.895 149.735 131.834C149.737 131.804 149.737 131.773 149.735 131.743C149.735 131.683 149.71 131.617 149.7 131.556V131.465L149.164 131.132V131.056C149.164 130.986 149.134 130.91 149.114 130.834V130.783L149.053 130.521C149.013 130.339 148.967 130.157 148.922 129.975V129.935C148.922 129.859 148.886 129.783 148.871 129.708V129.627L148.826 129.445C148.816 129.413 148.807 129.381 148.8 129.349L148.755 129.177C148.755 129.147 148.755 129.112 148.73 129.081C148.704 129.051 148.704 128.975 148.689 128.92L148.659 128.813C148.659 128.763 148.634 128.712 148.619 128.662L148.588 128.556L148.548 128.409L148.518 128.298C148.518 128.253 148.492 128.207 148.477 128.157L148.447 128.051C148.431 128.006 148.418 127.96 148.406 127.914C148.406 127.874 148.381 127.839 148.371 127.803C148.361 127.768 148.371 127.712 148.331 127.672C148.29 127.631 148.331 127.601 148.295 127.561C148.284 127.518 148.271 127.476 148.255 127.434C148.245 127.398 148.234 127.363 148.22 127.328C148.208 127.284 148.195 127.24 148.179 127.197C148.179 127.167 148.179 127.131 148.144 127.096C148.108 127.061 148.118 127.01 148.103 126.97C148.088 126.929 148.078 126.904 148.068 126.869L148.023 126.748C148.013 126.715 148.001 126.683 147.987 126.652C147.976 126.61 147.962 126.57 147.947 126.53C147.933 126.501 147.921 126.471 147.911 126.439L147.866 126.318C147.866 126.288 147.866 126.258 147.831 126.232L147.78 126.111L147.75 126.03C147.75 125.985 147.714 125.944 147.694 125.904C147.684 125.881 147.675 125.858 147.669 125.833L147.583 125.651C146.855 124.058 145.815 122.626 144.525 121.44C143.235 120.254 141.721 119.338 140.072 118.746C139.622 120.317 138.491 124.712 138.764 128.344C139.006 131.799 139.804 136.507 140.178 138.593Z" fill="white" stroke="#263238" stroke-linecap="round" stroke-linejoin="round"/>
<path d="M128.201 94.2175C128.201 94.2175 125.63 96.1773 124.822 98.3443C124.014 100.511 123.332 105.982 123.468 108.149C123.605 110.316 126.373 114.099 127.509 115.044C128.646 115.988 133.571 114.907 135.894 112.745C137.501 111.23 138.87 106.053 137.789 100.981C136.708 95.9096 131.515 93.0001 128.201 94.2175Z" fill="white" stroke="#263238" stroke-linecap="round" stroke-linejoin="round"/>
<path d="M130.434 104.093C130.434 104.093 131.919 102.537 134.42 103.82" stroke="#263238" stroke-linecap="round" stroke-linejoin="round"/>
<path d="M126.782 103.214C126.666 102.732 126.423 102.291 126.079 101.935C125.734 101.58 125.3 101.324 124.822 101.193" stroke="#263238" stroke-linecap="round" stroke-linejoin="round"/>
<path d="M127.999 102.537C127.999 102.537 127.863 103.82 127.388 104.295C126.913 104.77 125.903 105.239 126.307 106.189C126.711 107.139 127.929 107.336 128.469 106.795" stroke="#263238" stroke-linecap="round" stroke-linejoin="round"/>
<path d="M124.953 99.9001C124.953 99.9001 126.105 98.4807 127.984 99.9001" stroke="#263238" stroke-linecap="round" stroke-linejoin="round"/>
<path d="M130.096 100.577C130.096 100.577 132.323 99.2232 134.081 101.724" stroke="#263238" stroke-linecap="round" stroke-linejoin="round"/>
<path d="M126.171 108.351C126.171 108.351 127.121 109.634 129.707 109.296C132.293 108.957 132.884 107.876 132.884 107.876" stroke="#263238" stroke-linecap="round" stroke-linejoin="round"/>
<path d="M132.323 104.057C132.323 104.184 132.286 104.308 132.215 104.414C132.145 104.519 132.045 104.601 131.927 104.65C131.81 104.699 131.681 104.711 131.557 104.686C131.432 104.662 131.318 104.601 131.228 104.511C131.138 104.421 131.077 104.307 131.053 104.182C131.028 104.058 131.041 103.929 131.089 103.812C131.138 103.695 131.22 103.594 131.325 103.524C131.431 103.453 131.555 103.416 131.682 103.416C131.852 103.416 132.015 103.483 132.135 103.604C132.256 103.724 132.323 103.887 132.323 104.057Z" fill="#263238"/>
<path d="M126.373 102.567C126.373 102.694 126.335 102.818 126.265 102.924C126.194 103.029 126.094 103.111 125.977 103.16C125.86 103.208 125.731 103.221 125.606 103.196C125.482 103.172 125.367 103.111 125.278 103.021C125.188 102.931 125.127 102.817 125.102 102.692C125.077 102.568 125.09 102.439 125.139 102.322C125.187 102.205 125.269 102.104 125.375 102.034C125.48 101.963 125.604 101.926 125.731 101.926C125.901 101.926 126.065 101.993 126.185 102.114C126.305 102.234 126.373 102.397 126.373 102.567Z" fill="#263238"/>
<path d="M127.661 109.23C127.661 109.23 128.742 111.462 130.636 111.25C132.53 111.038 132.394 108.401 132.394 108.401C130.967 109.236 129.287 109.53 127.661 109.23Z" fill="#263238" stroke="#263238" stroke-linecap="round" stroke-linejoin="round"/>
<path d="M133.808 88.4085H133.657C131.232 88.6863 128.05 89.1965 126.105 90.7573C123.736 92.6465 124.549 93.1213 126.711 94.2023C128.873 95.2832 135.299 98.8696 135.91 104.007C136.521 109.144 134.42 117.191 133.409 120.843C132.399 124.495 133.743 126.995 135.708 128.753C136.15 129.164 136.676 129.475 137.25 129.665C137.823 129.855 138.431 129.92 139.031 129.854C140.133 129.743 141.517 129.45 142.39 128.733C142.486 128.657 143.593 127.49 143.401 127.333C142.431 126.51 141.264 127.692 140.673 126.561C139.466 124.237 141.34 121.454 142.608 119.544C143.643 117.984 145.366 117.019 146.416 115.503C147.439 113.869 148.058 112.014 148.225 110.094C148.705 105.982 147.932 101.623 146.487 97.7684C144.613 92.7677 140.734 88.3226 135.021 88.3377C134.627 88.3428 134.212 88.363 133.808 88.4085Z" fill="#263238"/>
<path d="M123.105 90.5302C123.105 90.5302 130.176 91.2929 134.682 97.41C139.188 103.527 140.471 107.679 140.36 113.357C140.249 119.034 144.84 121.661 148.225 120.019" stroke="#636363" stroke-linecap="round" stroke-linejoin="round"/>
<path d="M129.328 88.7823C129.328 88.7823 138.506 90.5301 141.451 99.7032C144.396 108.876 143.204 114.463 147.144 115.216" stroke="#636363" stroke-linecap="round" stroke-linejoin="round"/>
<path d="M133.914 105.931C133.914 105.931 137.304 114.125 136.44 121.878C135.576 129.632 138.966 131.056 144.416 129.632" stroke="#636363" stroke-linecap="round" stroke-linejoin="round"/>
<path d="M133.808 88.4085H133.657C131.232 88.6863 128.05 89.1965 126.105 90.7573C123.736 92.6465 124.549 93.1213 126.711 94.2023C128.873 95.2832 135.299 98.8696 135.91 104.007C136.521 109.144 134.42 117.191 133.409 120.843C132.399 124.495 133.743 126.995 135.708 128.753C136.15 129.164 136.676 129.475 137.25 129.665C137.823 129.855 138.431 129.92 139.031 129.854C140.133 129.743 141.517 129.45 142.39 128.733C142.486 128.657 143.593 127.49 143.401 127.333C142.431 126.51 141.264 127.692 140.673 126.561C139.466 124.237 141.34 121.454 142.608 119.544C143.643 117.984 145.366 117.019 146.416 115.503C147.439 113.869 148.058 112.014 148.225 110.094C148.705 105.982 147.932 101.623 146.487 97.7684C144.613 92.7677 140.734 88.3226 135.021 88.3377C134.627 88.3428 134.212 88.363 133.808 88.4085Z" stroke="#263238" stroke-linecap="round" stroke-linejoin="round"/>
<path d="M100.884 126.202C101.429 126.696 102.076 127.065 102.778 127.283C102.778 127.283 103.859 130.597 103.789 133.233C103.783 135.027 103.908 136.818 104.163 138.593H112.447C110.928 135.975 109.637 133.233 108.587 130.395C107.304 126.54 107.845 124.373 106.966 121.873C106.087 119.373 105.678 118.155 104.193 116.195C102.708 114.236 101.354 114.842 101.354 115.519C101.354 116.196 102.162 116.463 102.773 117.413C103.191 118.116 103.53 118.863 103.784 119.64C103.784 119.64 100.94 120.929 100.132 122.348C99.3234 123.767 100.005 125.389 100.884 126.202Z" fill="white" stroke="#263238" stroke-linecap="round" stroke-linejoin="round"/>
<path d="M98.9244 121.267C98.9244 121.267 97.8434 122.277 97.8434 123.287C97.8434 124.298 98.6516 125.722 99.0607 125.722C99.4699 125.722 99.6669 124.98 99.4648 124.237C99.2628 123.495 98.9244 121.267 98.9244 121.267Z" fill="white" stroke="#263238" stroke-linecap="round" stroke-linejoin="round"/>
<path d="M100.207 119.843C100.207 119.843 98.9243 120.656 98.5859 121.671C98.4735 122.112 98.4638 122.574 98.5575 123.019C98.6512 123.465 98.8458 123.883 99.1264 124.242C99.5305 124.848 100.748 124.985 101.086 124.646C101.425 124.308 101.152 123.565 101.086 123.131C101.021 122.696 100.344 121.373 100.409 120.767C100.449 120.452 100.473 120.135 100.48 119.817L100.207 119.843Z" fill="white" stroke="#263238" stroke-linecap="round" stroke-linejoin="round"/>
<path d="M103.794 119.64C103.794 119.64 102.031 118.559 100.682 119.302C99.3335 120.045 99.3941 121.535 99.8689 122.616C100.344 123.697 101.561 124.308 102.102 123.833C102.642 123.358 102.031 122.616 102.167 121.605C102.304 120.595 103.794 119.64 103.794 119.64Z" fill="white" stroke="#263238" stroke-linecap="round" stroke-linejoin="round"/>
<path d="M105.552 121.535C105.552 121.535 104.127 119.64 102.844 119.777C101.561 119.913 99.4649 122.302 99.869 122.888C100.273 123.474 102.693 122.545 102.693 122.545C102.693 122.545 102.016 124.778 103.703 125.247" fill="white"/>
<path d="M105.552 121.535C105.552 121.535 104.127 119.64 102.844 119.777C101.561 119.913 99.4649 122.302 99.869 122.888C100.273 123.474 102.693 122.545 102.693 122.545C102.693 122.545 102.016 124.778 103.703 125.247" stroke="#263238" stroke-linecap="round" stroke-linejoin="round"/>
<path d="M150.649 138.593H67.7935" stroke="#263238" stroke-linecap="round" stroke-linejoin="round"/>
<path d="M150.649 178.543H67.7935" stroke="#263238" stroke-linecap="round" stroke-linejoin="round"/>
<path d="M112.356 178.382C112.356 178.382 113.093 171.845 110.557 170.128C108.022 168.41 96.9999 160.49 92.7518 159.52C88.5037 158.55 85.8922 157.641 84.1646 158.621C82.4371 159.601 75.3552 165.986 72.4154 168.006C69.4756 170.027 68.0057 172.174 67.5965 173.724C67.3427 175.098 67.2596 176.498 67.349 177.892V178.543C67.349 178.543 112.522 178.215 112.356 178.382Z" fill="#263238" stroke="#263238" stroke-linecap="round" stroke-linejoin="round"/>
<path d="M84.1747 158.611C83.498 159.049 82.8485 159.528 82.23 160.045C82.2484 161.725 82.5915 163.386 83.2402 164.935C85.3517 170.067 90.1049 172.977 93.8479 171.436C97.0403 170.123 98.49 166.021 97.5656 161.672C96.0543 160.756 94.4358 160.03 92.7467 159.51C88.5036 158.53 85.8921 157.631 84.1747 158.611Z" fill="white" stroke="#263238" stroke-linecap="round" stroke-linejoin="round"/>
<path d="M85.1547 150.933C85.1547 150.933 84.9931 155.919 84.5839 158.04C84.1748 160.162 84.1748 163.026 86.2205 166.627C88.2663 170.229 93.2418 170.057 94.8077 168.648C96.3736 167.238 96.0301 163.339 96.0301 161.869C96.0301 160.399 96.8938 156.944 96.8938 156.944C96.8938 156.944 92.1103 155.09 89.6604 153.459C87.2106 151.827 85.973 150.443 85.1547 150.933Z" fill="white" stroke="#263238" stroke-linecap="round" stroke-linejoin="round"/>
<path d="M98.1465 137.623C98.1465 137.623 100.106 140.972 100.596 141.952C100.789 142.384 100.867 142.859 100.824 143.33C100.78 143.802 100.617 144.254 100.349 144.644C99.9044 145.266 103.885 147.205 103.814 148.226C103.743 149.246 103.385 149.807 102.582 150.963C101.703 152.226 102.031 154.343 101.642 155.828C101.314 157.091 100.91 157.404 99.6215 157.879C97.1666 158.778 92.5952 158.449 90.307 157.308C88.0188 156.166 87.2055 154.12 86.3872 152.65C85.5689 151.181 85.4881 148.483 85.9781 145.624C86.468 142.765 90.307 138.926 92.7568 137.865C95.2067 136.805 98.1465 137.623 98.1465 137.623Z" fill="white" stroke="#263238" stroke-linecap="round" stroke-linejoin="round"/>
<path d="M100.51 152.731C99.8395 152.909 99.1395 152.951 98.4521 152.853C97.7648 152.755 97.1043 152.519 96.5099 152.16C96.5099 152.16 96.5099 154.61 97.7373 154.686C98.9648 154.762 100.51 152.731 100.51 152.731Z" fill="#263238"/>
<path d="M98.1466 146.119C98.2728 146.67 98.1466 147.17 97.8536 147.235C97.5606 147.301 97.2373 146.907 97.111 146.357C96.9848 145.806 97.111 145.306 97.404 145.24C97.697 145.175 98.0051 145.569 98.1466 146.119Z" fill="#263238"/>
<path d="M94.9591 144.483C95.2411 144.059 95.6334 143.721 96.0937 143.505C96.554 143.288 97.0648 143.202 97.5706 143.255" stroke="#263238" stroke-linecap="round" stroke-linejoin="round"/>
<path d="M102.799 150.195C102.799 150.195 101.536 151.559 100.753 151.66C99.9701 151.761 99.0962 150.685 99.4852 150.004" stroke="#263238" stroke-linecap="round" stroke-linejoin="round"/>
<path d="M88.342 150.933C88.7309 150.807 90.6302 151.1 90.3625 150.034C90.0948 148.968 89.5492 148.811 89.9533 148.013C90.3574 147.215 94.5298 145.235 93.6307 143.604C93.0327 142.549 92.3213 141.563 91.5091 140.664C91.5091 140.664 98.3687 139.355 99.8387 137.315C101.309 135.274 99.677 132.087 97.9596 132.087C96.2422 132.087 97.0605 132.658 92.4891 134.107C87.9177 135.557 85.6244 133.784 82.1946 137.375C78.7648 140.967 79.8256 147.983 81.1339 150.201C82.4421 152.418 85.0536 154.201 86.3619 153.711C87.6702 153.221 87.362 151.261 88.342 150.933Z" fill="#263238" stroke="#263238" stroke-linecap="round" stroke-linejoin="round"/>
<path d="M89.5593 151.67C89.5593 151.67 86.5286 147.831 84.5081 149.054C82.4876 150.276 85.488 153.959 86.7963 154.368C88.1046 154.777 89.6553 153.792 89.6553 153.792" fill="white"/>
<path d="M89.5593 151.67C89.5593 151.67 86.5286 147.831 84.5081 149.054C82.4876 150.276 85.488 153.959 86.7963 154.368C88.1046 154.777 89.6553 153.792 89.6553 153.792" stroke="#263238" stroke-linecap="round" stroke-linejoin="round"/>
<path d="M150.104 201.814H67.1671" stroke="#263238" stroke-linecap="round" stroke-linejoin="round"/>
<path d="M106.602 199.642C106.602 199.642 106.527 195.147 107.198 194.47C107.87 193.793 124.433 184.731 129.08 184.802C133.728 184.872 140.077 191.202 143.466 192.884C148.861 195.581 148.861 197.076 149.311 198.576C149.76 200.077 150.134 201.799 150.134 201.799H106.602V199.642Z" fill="white"/>
<path d="M149.922 200.895C148.669 200.809 147.321 200.733 145.881 200.673L146.457 197.066L148.831 197.167C148.53 196.531 148.1 195.965 147.568 195.505L146.709 195.47L146.805 194.884C146.689 194.798 146.568 194.707 146.437 194.621L146.305 195.455L145.532 195.425L145.734 194.162C145.3 193.894 144.805 193.611 144.244 193.313L144.184 193.672C142.532 193.581 140.87 193.515 139.213 193.465L139.491 190.939L140.501 190.964C139.526 190.257 138.481 189.449 137.375 188.681L137.284 189.297C135.46 189.272 133.642 189.262 131.854 189.257L132.192 185.569L131.803 185.408L131.449 189.257H130.631L130.939 185.105C130.423 184.947 129.891 184.847 129.353 184.807L129.02 189.262C128.055 189.262 127.1 189.262 126.156 189.262L126.459 185.221L126.045 185.347L125.752 189.247H124.393L124.499 185.857C123.994 186.044 123.433 186.256 122.877 186.479L122.792 189.267C121.387 189.267 120.029 189.312 118.725 189.343L118.776 188.272L118.367 188.464L118.321 189.353H117.276V188.954C115.801 189.666 114.361 190.388 113.048 191.075L115.573 191L115.472 193.576L112.795 193.768L112.886 191.242L112.477 191.454L112.396 193.778L111.689 193.813L111.795 191.793C111.199 192.111 110.643 192.409 110.138 192.687L110.078 193.884L107.815 194.02C107.607 194.137 107.409 194.27 107.224 194.419L107.188 194.465L110.057 194.288L109.992 195.526L106.825 195.647C106.749 196.152 106.703 196.708 106.673 197.258C107.592 197.223 108.694 197.177 109.906 197.137L109.729 200.476L106.628 200.536V200.935L109.709 200.875L109.663 201.764H111.27L111.315 200.845H112.149L112.113 201.774H112.517L112.548 200.834L115.26 200.794L115.22 201.774H116.826L116.866 200.764H117.826L117.781 201.774H118.185L118.23 200.764L122.468 200.728L122.438 201.779H124.039L124.075 200.723H124.918L124.842 201.784H125.241L125.322 200.723H128.181L128.1 201.789H129.707L129.788 200.728H130.419L130.323 201.784H130.727L130.823 200.728C132.434 200.728 134.046 200.728 135.637 200.769L135.49 201.779H137.107L137.253 200.769H138.031L137.925 201.744H138.329L138.435 200.774C140.011 200.804 141.552 200.844 143.042 200.895L142.906 201.744H144.527L144.653 200.951L145.446 200.981L145.325 201.744H145.729L145.846 201.001C147.331 201.067 148.73 201.143 150.028 201.228C149.993 201.183 149.957 201.047 149.922 200.895ZM112.138 200.481H111.31L111.487 197.117L112.255 197.091L112.138 200.481ZM112.31 195.5L111.573 195.526L111.643 194.248L112.356 194.212L112.31 195.5ZM115.25 200.435L112.538 200.476L112.654 197.091L115.386 197.016L115.25 200.435ZM115.447 195.409L112.709 195.485L112.755 194.192C113.613 194.147 114.533 194.106 115.503 194.066L115.447 195.409ZM117.821 200.405H116.856L116.993 196.96H118.003L117.821 200.405ZM118.059 195.354L117.048 195.379L117.104 194.01L118.114 193.97L118.059 195.354ZM118.139 193.571L117.129 193.606L117.23 191.055H118.266L118.139 193.571ZM122.458 200.375L118.225 200.41L118.382 196.95L122.564 196.869L122.458 200.375ZM122.615 195.268C121.18 195.268 119.791 195.313 118.458 195.344L118.523 193.955C119.837 193.909 121.221 193.869 122.66 193.838L122.615 195.268ZM122.67 193.434C121.236 193.47 119.857 193.51 118.543 193.556L118.66 191.03C119.973 191 121.342 190.974 122.751 190.954L122.67 193.434ZM124.352 190.909H125.646L125.459 193.379H124.277L124.352 190.909ZM124.918 200.334H124.059L124.171 196.798H125.181L124.918 200.334ZM124.201 195.212L124.246 193.773H125.408L125.302 195.222L124.201 195.212ZM128.201 200.334H125.342L125.605 196.798H128.469L128.201 200.334ZM128.585 195.182H125.726L125.832 193.732C126.772 193.732 127.727 193.722 128.697 193.702L128.585 195.182ZM128.727 193.323L125.863 193.348L126.045 190.883H128.909L128.727 193.323ZM130.52 190.858H131.313L131.091 193.318H130.333L130.52 190.858ZM130.444 200.334H129.808L130.076 196.773H130.773L130.444 200.334ZM130.197 195.167L130.303 193.712H131.05L130.919 195.167H130.197ZM135.682 200.38C134.086 200.38 132.47 200.344 130.848 200.339L131.177 196.773C132.834 196.773 134.511 196.773 136.203 196.798L135.682 200.38ZM136.435 195.197C134.718 195.197 133.005 195.167 131.323 195.167L131.455 193.712C133.157 193.712 134.894 193.737 136.642 193.773L136.435 195.197ZM136.703 193.374C134.945 193.338 133.202 193.318 131.49 193.313L131.717 190.853C133.48 190.853 135.253 190.853 137.061 190.894L136.703 193.374ZM138.683 190.919H139.112L138.834 193.444H138.329L138.683 190.919ZM138.259 193.813H138.794L138.637 195.212H138.056L138.259 193.813ZM138.051 200.44H137.284L137.789 196.854H138.425L138.051 200.44ZM143.103 200.567C141.587 200.516 140.072 200.476 138.481 200.445L138.875 196.854C140.481 196.879 142.087 196.92 143.689 196.965L143.103 200.567ZM143.946 195.369C142.32 195.318 140.683 195.283 139.052 195.253L139.203 193.864C140.855 193.914 142.507 193.98 144.158 194.071L143.946 195.369ZM145.507 200.658L144.719 200.622L145.305 197.021L146.083 197.046L145.507 200.658Z" fill="#ADADAD"/>
<path d="M106.602 199.642C106.602 199.642 106.527 195.147 107.198 194.47C107.87 193.793 124.433 184.731 129.08 184.802C133.728 184.872 140.077 191.202 143.466 192.884C148.861 195.581 148.861 197.076 149.311 198.576C149.76 200.077 150.134 201.799 150.134 201.799H106.602V199.642Z" stroke="#263238" stroke-linecap="round" stroke-linejoin="round"/>
<path d="M126.605 183.004C126.605 183.004 124.357 183.155 123.761 184.281C123.165 185.408 123.458 186.08 122.246 189.449C121.034 192.818 120.372 193.798 121.049 193.798C121.726 193.798 123.574 191.848 124.266 191.55C124.958 191.252 126.519 193.869 126.519 193.869C126.519 193.869 129.515 192.298 130.49 192.222C131.465 192.146 133.561 196.192 133.935 195.521C134.308 194.849 135.283 192.374 136.334 190.126C137.385 187.878 137.607 186.004 136.708 184.504C135.809 183.004 127.358 182.554 126.605 183.004Z" fill="#263238" stroke="#263238" stroke-linecap="round" stroke-linejoin="round"/>
<path d="M125.257 182.256C124.911 184.565 124.886 186.911 125.181 189.227C125.686 192.596 126.459 194.546 127.055 194.096C127.651 193.646 131.328 191.399 133.202 189.075C135.076 186.751 135.374 186.453 135.9 185.181C136.425 183.908 137.021 182.483 137.021 182.483C137.021 182.483 130.055 185.105 125.257 182.256Z" fill="white" stroke="#263238" stroke-linecap="round" stroke-linejoin="round"/>
<path d="M125.332 169.89C125.332 169.89 123.984 167.794 123.236 170.269C122.489 172.744 124.282 174.088 124.509 173.936C124.736 173.785 125.332 169.89 125.332 169.89Z" fill="white" stroke="#263238" stroke-linecap="round" stroke-linejoin="round"/>
<path d="M126.009 164.647C126.009 164.647 123.534 175.361 123.009 178.437C122.483 181.513 125.858 184.352 129.606 184.877C133.354 185.403 136.945 183.605 137.92 181.731C138.895 179.857 141.961 167.87 142.416 167.047C142.87 166.223 144.436 162.627 143.244 161.424C142.052 160.222 140.097 161.126 140.097 161.126C140.097 161.126 138.743 157.676 136.425 157.591C134.106 157.505 133.798 158.56 133.798 158.56C133.798 158.56 131.778 156.09 129.904 156.616C128.03 157.141 128.03 158.338 128.03 158.338C128.03 158.338 124.585 157.515 123.312 159.985C122.039 162.455 125.56 163.208 125.56 163.208C125.56 163.208 124.807 164.273 126.009 164.647Z" fill="white" stroke="#263238" stroke-linecap="round" stroke-linejoin="round"/>
<path d="M139.718 173.416C139.946 173.34 141.446 170.941 142.865 171.901C144.285 172.861 142.643 176.548 141.446 177.144C141.242 177.254 141.016 177.321 140.785 177.339C140.553 177.356 140.32 177.326 140.101 177.248C139.882 177.171 139.682 177.048 139.514 176.888C139.345 176.728 139.212 176.535 139.122 176.321" fill="white"/>
<path d="M139.718 173.416C139.946 173.34 141.446 170.941 142.865 171.901C144.285 172.861 142.643 176.548 141.446 177.144C141.242 177.254 141.016 177.321 140.785 177.339C140.553 177.356 140.32 177.326 140.101 177.248C139.882 177.171 139.682 177.048 139.514 176.888C139.345 176.728 139.212 176.535 139.122 176.321" stroke="#263238" stroke-linecap="round" stroke-linejoin="round"/>
<path d="M143.244 161.44C142.042 160.242 140.097 161.142 140.097 161.142C140.097 161.142 138.743 157.692 136.425 157.606C134.106 157.52 133.798 158.576 133.798 158.576C133.798 158.576 131.778 156.105 129.904 156.631C128.03 157.156 128.03 158.353 128.03 158.353C128.03 158.353 124.585 157.53 123.312 160C122.039 162.47 125.56 163.223 125.56 163.223C125.56 163.223 124.807 164.273 126.009 164.647C126.459 164.198 127.358 162.177 131.929 162.122C136.501 162.066 140.168 165.344 140.168 165.344C140.168 165.344 138.521 167.289 139.046 168.112C139.572 168.936 140.168 168.865 140.097 169.537C140.026 170.209 138.582 176.356 137.996 177.331C137.673 177.804 137.212 178.166 136.676 178.368C136.14 178.569 135.555 178.601 135 178.457C133.95 178.154 133.349 177.407 131.465 176.437C129.58 175.467 128.015 175.088 126.666 175.613C125.317 176.139 125.241 176.588 124.494 176.811C123.847 177.008 123.645 176.583 123.458 176.083C123.256 177.058 123.095 177.892 122.994 178.462C122.488 181.534 125.843 184.377 129.591 184.903C133.339 185.428 136.93 183.63 137.905 181.756C138.88 179.882 141.946 167.895 142.401 167.072C142.855 166.248 144.441 162.627 143.244 161.44Z" fill="#3444F1" stroke="#263238" stroke-linecap="round" stroke-linejoin="round"/>
<path d="M126.984 177.013C126.984 177.013 129.752 178.735 131.626 177.684C131.626 177.684 129.752 179.932 128.782 179.932C127.813 179.932 126.984 177.013 126.984 177.013Z" fill="#263238" stroke="#263238" stroke-linecap="round" stroke-linejoin="round"/>
<path d="M129.08 170.678C129.08 171.178 128.932 171.666 128.655 172.082C128.377 172.497 127.983 172.821 127.521 173.012C127.06 173.203 126.552 173.253 126.062 173.156C125.572 173.058 125.122 172.817 124.769 172.464C124.416 172.111 124.175 171.661 124.078 171.171C123.98 170.681 124.03 170.173 124.221 169.712C124.412 169.25 124.736 168.856 125.152 168.578C125.567 168.301 126.055 168.153 126.555 168.153C127.225 168.153 127.867 168.419 128.341 168.893C128.814 169.366 129.08 170.009 129.08 170.678Z" stroke="#263238" stroke-linecap="round" stroke-linejoin="round"/>
<path d="M136.349 171.951C136.349 172.451 136.201 172.939 135.923 173.354C135.646 173.77 135.252 174.094 134.79 174.285C134.329 174.476 133.821 174.526 133.331 174.428C132.841 174.331 132.391 174.09 132.038 173.737C131.684 173.384 131.444 172.934 131.346 172.444C131.249 171.954 131.299 171.446 131.49 170.985C131.681 170.523 132.005 170.129 132.42 169.851C132.836 169.574 133.324 169.426 133.823 169.426C134.493 169.426 135.136 169.692 135.609 170.165C136.083 170.639 136.349 171.281 136.349 171.951Z" stroke="#263238" stroke-linecap="round" stroke-linejoin="round"/>
<path d="M129.156 170.416C129.156 170.416 130.202 169.911 131.48 170.921" stroke="#263238" stroke-linecap="round" stroke-linejoin="round"/>
<path d="M136.349 171.951L141.219 172.138" stroke="#263238" stroke-linecap="round" stroke-linejoin="round"/>
<path d="M129.53 170.719C128.913 171.885 128.363 173.086 127.883 174.315C127.732 174.987 128.555 175.361 129.606 175.361C130.656 175.361 131.121 174.911 131.121 174.462" stroke="#263238" stroke-linecap="round" stroke-linejoin="round"/>
<path d="M129.303 167.87C129.2 167.869 129.1 167.843 129.01 167.794C128.617 167.537 128.162 167.391 127.693 167.374C127.224 167.356 126.759 167.466 126.348 167.693C126.281 167.738 126.207 167.768 126.129 167.784C126.05 167.8 125.97 167.8 125.891 167.784C125.733 167.753 125.594 167.66 125.504 167.526C125.414 167.392 125.382 167.228 125.413 167.07C125.444 166.912 125.537 166.773 125.671 166.683C126.267 166.33 126.949 166.148 127.642 166.156C128.335 166.164 129.012 166.362 129.601 166.728C129.718 166.793 129.809 166.895 129.862 167.018C129.914 167.141 129.924 167.278 129.89 167.407C129.856 167.537 129.779 167.651 129.673 167.732C129.567 167.813 129.436 167.856 129.303 167.855V167.87Z" fill="#3444F1"/>
<path d="M136.647 170.345C136.549 170.347 136.451 170.325 136.363 170.281C136.275 170.237 136.199 170.172 136.142 170.092C135.789 169.546 135.274 169.122 134.67 168.881C134.065 168.639 133.401 168.591 132.768 168.744C132.618 168.785 132.457 168.766 132.321 168.691C132.184 168.617 132.082 168.492 132.035 168.343C131.989 168.195 132.002 168.034 132.072 167.895C132.141 167.756 132.262 167.649 132.409 167.597C133.284 167.367 134.209 167.416 135.055 167.739C135.9 168.061 136.623 168.641 137.122 169.395C137.187 169.486 137.225 169.594 137.232 169.705C137.239 169.817 137.215 169.928 137.163 170.026C137.111 170.125 137.032 170.207 136.935 170.263C136.839 170.32 136.728 170.348 136.617 170.345H136.647Z" fill="#3444F1"/>
<path d="M126.868 171.689C127.136 171.689 127.353 171.286 127.353 170.79C127.353 170.293 127.136 169.89 126.868 169.89C126.6 169.89 126.383 170.293 126.383 170.79C126.383 171.286 126.6 171.689 126.868 171.689Z" fill="#263238" stroke="#263238" stroke-linecap="round" stroke-linejoin="round"/>
<path d="M133.95 171.916C133.95 172.421 133.733 172.815 133.445 172.815C133.157 172.815 132.94 172.411 132.94 171.916C132.94 171.421 133.157 171.017 133.445 171.017C133.733 171.017 133.95 171.421 133.95 171.916Z" fill="#263238" stroke="#263238" stroke-linecap="round" stroke-linejoin="round"/>
<path d="M128.731 145.135V145.786H126.666V147.221H128.276V147.872H126.666V150H125.868V145.135H128.731ZM129.876 145.632C129.732 145.632 129.61 145.583 129.512 145.485C129.414 145.387 129.365 145.266 129.365 145.121C129.365 144.976 129.414 144.855 129.512 144.757C129.61 144.659 129.732 144.61 129.876 144.61C130.016 144.61 130.135 144.659 130.233 144.757C130.331 144.855 130.38 144.976 130.38 145.121C130.38 145.266 130.331 145.387 130.233 145.485C130.135 145.583 130.016 145.632 129.876 145.632ZM130.268 146.143V150H129.47V146.143H130.268ZM133.262 146.08C133.565 146.08 133.836 146.143 134.074 146.269C134.317 146.395 134.506 146.582 134.641 146.829C134.776 147.076 134.844 147.375 134.844 147.725V150H134.053V147.844C134.053 147.499 133.967 147.235 133.794 147.053C133.621 146.866 133.386 146.773 133.087 146.773C132.788 146.773 132.55 146.866 132.373 147.053C132.2 147.235 132.114 147.499 132.114 147.844V150H131.316V146.143H132.114V146.584C132.245 146.425 132.41 146.302 132.611 146.213C132.816 146.124 133.033 146.08 133.262 146.08ZM139.397 147.977C139.397 148.122 139.388 148.252 139.369 148.369H136.422C136.445 148.677 136.56 148.924 136.765 149.111C136.97 149.298 137.222 149.391 137.521 149.391C137.95 149.391 138.254 149.211 138.431 148.852H139.292C139.175 149.207 138.963 149.498 138.655 149.727C138.352 149.951 137.974 150.063 137.521 150.063C137.152 150.063 136.821 149.981 136.527 149.818C136.238 149.65 136.009 149.417 135.841 149.118C135.678 148.815 135.596 148.465 135.596 148.068C135.596 147.671 135.675 147.324 135.834 147.025C135.997 146.722 136.224 146.488 136.513 146.325C136.807 146.162 137.143 146.08 137.521 146.08C137.885 146.08 138.209 146.159 138.494 146.318C138.779 146.477 139 146.701 139.159 146.99C139.318 147.275 139.397 147.604 139.397 147.977ZM138.564 147.725C138.559 147.431 138.454 147.195 138.249 147.018C138.044 146.841 137.789 146.752 137.486 146.752C137.211 146.752 136.975 146.841 136.779 147.018C136.583 147.191 136.466 147.426 136.429 147.725H138.564Z" fill="black"/>
<path d="M78.8785 187.535C78.7525 187.292 78.5775 187.11 78.3535 186.989C78.1295 186.863 77.8705 186.8 77.5765 186.8C77.2545 186.8 76.9675 186.872 76.7155 187.017C76.4635 187.162 76.2652 187.367 76.1205 187.633C75.9805 187.899 75.9105 188.207 75.9105 188.557C75.9105 188.907 75.9805 189.217 76.1205 189.488C76.2652 189.754 76.4635 189.959 76.7155 190.104C76.9675 190.249 77.2545 190.321 77.5765 190.321C78.0105 190.321 78.3629 190.2 78.6335 189.957C78.9042 189.714 79.0699 189.385 79.1305 188.97H77.3035V188.333H79.9845V188.956C79.9332 189.334 79.7979 189.682 79.5785 189.999C79.3639 190.316 79.0815 190.571 78.7315 190.762C78.3862 190.949 78.0012 191.042 77.5765 191.042C77.1192 191.042 76.7015 190.937 76.3235 190.727C75.9455 190.512 75.6445 190.216 75.4205 189.838C75.2012 189.46 75.0915 189.033 75.0915 188.557C75.0915 188.081 75.2012 187.654 75.4205 187.276C75.6445 186.898 75.9455 186.604 76.3235 186.394C76.7062 186.179 77.1239 186.072 77.5765 186.072C78.0945 186.072 78.5542 186.2 78.9555 186.457C79.3615 186.709 79.6555 187.068 79.8375 187.535H78.8785ZM82.4446 191.063C82.0806 191.063 81.7516 190.981 81.4576 190.818C81.1636 190.65 80.9326 190.417 80.7646 190.118C80.5966 189.815 80.5126 189.465 80.5126 189.068C80.5126 188.676 80.5989 188.328 80.7716 188.025C80.9442 187.722 81.1799 187.488 81.4786 187.325C81.7772 187.162 82.1109 187.08 82.4796 187.08C82.8482 187.08 83.1819 187.162 83.4806 187.325C83.7792 187.488 84.0149 187.722 84.1876 188.025C84.3602 188.328 84.4466 188.676 84.4466 189.068C84.4466 189.46 84.3579 189.808 84.1806 190.111C84.0032 190.414 83.7606 190.65 83.4526 190.818C83.1492 190.981 82.8132 191.063 82.4446 191.063ZM82.4446 190.37C82.6499 190.37 82.8412 190.321 83.0186 190.223C83.2006 190.125 83.3476 189.978 83.4596 189.782C83.5716 189.586 83.6276 189.348 83.6276 189.068C83.6276 188.788 83.5739 188.552 83.4666 188.361C83.3592 188.165 83.2169 188.018 83.0396 187.92C82.8622 187.822 82.6709 187.773 82.4656 187.773C82.2602 187.773 82.0689 187.822 81.8916 187.92C81.7189 188.018 81.5812 188.165 81.4786 188.361C81.3759 188.552 81.3246 188.788 81.3246 189.068C81.3246 189.483 81.4296 189.805 81.6396 190.034C81.8542 190.258 82.1226 190.37 82.4446 190.37ZM86.9084 191.063C86.5444 191.063 86.2154 190.981 85.9214 190.818C85.6274 190.65 85.3964 190.417 85.2284 190.118C85.0604 189.815 84.9764 189.465 84.9764 189.068C84.9764 188.676 85.0628 188.328 85.2354 188.025C85.4081 187.722 85.6438 187.488 85.9424 187.325C86.2411 187.162 86.5748 187.08 86.9434 187.08C87.3121 187.08 87.6458 187.162 87.9444 187.325C88.2431 187.488 88.4788 187.722 88.6514 188.025C88.8241 188.328 88.9104 188.676 88.9104 189.068C88.9104 189.46 88.8218 189.808 88.6444 190.111C88.4671 190.414 88.2244 190.65 87.9164 190.818C87.6131 190.981 87.2771 191.063 86.9084 191.063ZM86.9084 190.37C87.1138 190.37 87.3051 190.321 87.4824 190.223C87.6644 190.125 87.8114 189.978 87.9234 189.782C88.0354 189.586 88.0914 189.348 88.0914 189.068C88.0914 188.788 88.0378 188.552 87.9304 188.361C87.8231 188.165 87.6808 188.018 87.5034 187.92C87.3261 187.822 87.1348 187.773 86.9294 187.773C86.7241 187.773 86.5328 187.822 86.3554 187.92C86.1828 188.018 86.0451 188.165 85.9424 188.361C85.8398 188.552 85.7884 188.788 85.7884 189.068C85.7884 189.483 85.8934 189.805 86.1034 190.034C86.3181 190.258 86.5864 190.37 86.9084 190.37ZM89.4333 189.054C89.4333 188.667 89.5126 188.324 89.6713 188.025C89.8346 187.726 90.054 187.495 90.3293 187.332C90.6093 187.164 90.9196 187.08 91.2603 187.08C91.5123 187.08 91.7596 187.136 92.0023 187.248C92.2496 187.355 92.4456 187.5 92.5903 187.682V185.82H93.3953V191H92.5903V190.419C92.4596 190.606 92.2776 190.76 92.0443 190.881C91.8156 191.002 91.552 191.063 91.2533 191.063C90.9173 191.063 90.6093 190.979 90.3293 190.811C90.054 190.638 89.8346 190.4 89.6713 190.097C89.5126 189.789 89.4333 189.441 89.4333 189.054ZM92.5903 189.068C92.5903 188.802 92.5343 188.571 92.4223 188.375C92.315 188.179 92.1726 188.03 91.9953 187.927C91.818 187.824 91.6266 187.773 91.4213 187.773C91.216 187.773 91.0246 187.824 90.8473 187.927C90.67 188.025 90.5253 188.172 90.4133 188.368C90.306 188.559 90.2523 188.788 90.2523 189.054C90.2523 189.32 90.306 189.553 90.4133 189.754C90.5253 189.955 90.67 190.109 90.8473 190.216C91.0293 190.319 91.2206 190.37 91.4213 190.37C91.6266 190.37 91.818 190.319 91.9953 190.216C92.1726 190.113 92.315 189.964 92.4223 189.768C92.5343 189.567 92.5903 189.334 92.5903 189.068ZM95.4445 186.135L95.3535 189.53H94.6885L94.5975 186.135H95.4445ZM95.0455 191.049C94.9008 191.049 94.7795 191 94.6815 190.902C94.5835 190.804 94.5345 190.683 94.5345 190.538C94.5345 190.393 94.5835 190.272 94.6815 190.174C94.7795 190.076 94.9008 190.027 95.0455 190.027C95.1855 190.027 95.3045 190.076 95.4025 190.174C95.5005 190.272 95.5495 190.393 95.5495 190.538C95.5495 190.683 95.5005 190.804 95.4025 190.902C95.3045 191 95.1855 191.049 95.0455 191.049Z" fill="black"/>
<path d="M127.08 70.135V75H126.282V72.872H123.993V75H123.195V70.135H123.993V72.221H126.282V70.135H127.08ZM131.665 72.977C131.665 73.1217 131.656 73.2523 131.637 73.369H128.69C128.714 73.677 128.828 73.9243 129.033 74.111C129.239 74.2977 129.491 74.391 129.789 74.391C130.219 74.391 130.522 74.2113 130.699 73.852H131.56C131.444 74.2067 131.231 74.4983 130.923 74.727C130.62 74.951 130.242 75.063 129.789 75.063C129.421 75.063 129.089 74.9813 128.795 74.818C128.506 74.65 128.277 74.4167 128.109 74.118C127.946 73.8147 127.864 73.4647 127.864 73.068C127.864 72.6713 127.944 72.3237 128.102 72.025C128.266 71.7217 128.492 71.4883 128.781 71.325C129.075 71.1617 129.411 71.08 129.789 71.08C130.153 71.08 130.478 71.1593 130.762 71.318C131.047 71.4767 131.269 71.7007 131.427 71.99C131.586 72.2747 131.665 72.6037 131.665 72.977ZM130.832 72.725C130.828 72.431 130.723 72.1953 130.517 72.018C130.312 71.8407 130.058 71.752 129.754 71.752C129.479 71.752 129.243 71.8407 129.047 72.018C128.851 72.1907 128.735 72.4263 128.697 72.725H130.832ZM133.249 69.82V75H132.451V69.82H133.249ZM135.094 69.82V75H134.296V69.82H135.094ZM137.815 75.063C137.451 75.063 137.122 74.9813 136.828 74.818C136.534 74.65 136.303 74.4167 136.135 74.118C135.967 73.8147 135.883 73.4647 135.883 73.068C135.883 72.676 135.97 72.3283 136.142 72.025C136.315 71.7217 136.551 71.4883 136.849 71.325C137.148 71.1617 137.482 71.08 137.85 71.08C138.219 71.08 138.553 71.1617 138.851 71.325C139.15 71.4883 139.386 71.7217 139.558 72.025C139.731 72.3283 139.817 72.676 139.817 73.068C139.817 73.46 139.729 73.8077 139.551 74.111C139.374 74.4143 139.131 74.65 138.823 74.818C138.52 74.9813 138.184 75.063 137.815 75.063ZM137.815 74.37C138.021 74.37 138.212 74.321 138.389 74.223C138.571 74.125 138.718 73.978 138.83 73.782C138.942 73.586 138.998 73.348 138.998 73.068C138.998 72.788 138.945 72.5523 138.837 72.361C138.73 72.165 138.588 72.018 138.41 71.92C138.233 71.822 138.042 71.773 137.836 71.773C137.631 71.773 137.44 71.822 137.262 71.92C137.09 72.018 136.952 72.165 136.849 72.361C136.747 72.5523 136.695 72.788 136.695 73.068C136.695 73.4833 136.8 73.8053 137.01 74.034C137.225 74.258 137.493 74.37 137.815 74.37ZM141.607 70.135L141.516 73.53H140.851L140.76 70.135H141.607ZM141.208 75.049C141.063 75.049 140.942 75 140.844 74.902C140.746 74.804 140.697 74.6827 140.697 74.538C140.697 74.3933 140.746 74.272 140.844 74.174C140.942 74.076 141.063 74.027 141.208 74.027C141.348 74.027 141.467 74.076 141.565 74.174C141.663 74.272 141.712 74.3933 141.712 74.538C141.712 74.6827 141.663 74.804 141.565 74.902C141.467 75 141.348 75.049 141.208 75.049Z" fill="black"/>
<path d="M76.4607 105.83V110H75.7767V108.176H73.8147V110H73.1307V105.83H73.8147V107.618H75.7767V105.83H76.4607ZM78.7951 110.054C78.4831 110.054 78.2011 109.984 77.9491 109.844C77.6971 109.7 77.4991 109.5 77.3551 109.244C77.2111 108.984 77.1391 108.684 77.1391 108.344C77.1391 108.008 77.2131 107.71 77.3611 107.45C77.5091 107.19 77.7111 106.99 77.9671 106.85C78.2231 106.71 78.5091 106.64 78.8251 106.64C79.1411 106.64 79.4271 106.71 79.6831 106.85C79.9391 106.99 80.1411 107.19 80.2891 107.45C80.4371 107.71 80.5111 108.008 80.5111 108.344C80.5111 108.68 80.4351 108.978 80.2831 109.238C80.1311 109.498 79.9231 109.7 79.6591 109.844C79.3991 109.984 79.1111 110.054 78.7951 110.054ZM78.7951 109.46C78.9711 109.46 79.1351 109.418 79.2871 109.334C79.4431 109.25 79.5691 109.124 79.6651 108.956C79.7611 108.788 79.8091 108.584 79.8091 108.344C79.8091 108.104 79.7631 107.902 79.6711 107.738C79.5791 107.57 79.4571 107.444 79.3051 107.36C79.1531 107.276 78.9891 107.234 78.8131 107.234C78.6371 107.234 78.4731 107.276 78.3211 107.36C78.1731 107.444 78.0551 107.57 77.9671 107.738C77.8791 107.902 77.8351 108.104 77.8351 108.344C77.8351 108.7 77.9251 108.976 78.1051 109.172C78.2891 109.364 78.5191 109.46 78.7951 109.46ZM85.6273 106.694L84.6013 110H83.8813L83.2153 107.558L82.5493 110H81.8293L80.7973 106.694H81.4933L82.1833 109.352L82.8853 106.694H83.5993L84.2713 109.34L84.9553 106.694H85.6273ZM87.4691 108.332C87.4691 108 87.5371 107.706 87.6731 107.45C87.8131 107.194 88.0011 106.996 88.2371 106.856C88.4771 106.712 88.7411 106.64 89.0291 106.64C89.2891 106.64 89.5151 106.692 89.7071 106.796C89.9031 106.896 90.0591 107.022 90.1751 107.174V106.694H90.8651V110H90.1751V109.508C90.0591 109.664 89.9011 109.794 89.7011 109.898C89.5011 110.002 89.2731 110.054 89.0171 110.054C88.7331 110.054 88.4731 109.982 88.2371 109.838C88.0011 109.69 87.8131 109.486 87.6731 109.226C87.5371 108.962 87.4691 108.664 87.4691 108.332ZM90.1751 108.344C90.1751 108.116 90.1271 107.918 90.0311 107.75C89.9391 107.582 89.8171 107.454 89.6651 107.366C89.5131 107.278 89.3491 107.234 89.1731 107.234C88.9971 107.234 88.8331 107.278 88.6811 107.366C88.5291 107.45 88.4051 107.576 88.3091 107.744C88.2171 107.908 88.1711 108.104 88.1711 108.332C88.1711 108.56 88.2171 108.76 88.3091 108.932C88.4051 109.104 88.5291 109.236 88.6811 109.328C88.8371 109.416 89.0011 109.46 89.1731 109.46C89.3491 109.46 89.5131 109.416 89.6651 109.328C89.8171 109.24 89.9391 109.112 90.0311 108.944C90.1271 108.772 90.1751 108.572 90.1751 108.344ZM92.4475 107.174C92.5475 107.006 92.6795 106.876 92.8435 106.784C93.0115 106.688 93.2095 106.64 93.4375 106.64V107.348H93.2635C92.9955 107.348 92.7915 107.416 92.6515 107.552C92.5155 107.688 92.4475 107.924 92.4475 108.26V110H91.7635V106.694H92.4475V107.174ZM97.0962 108.266C97.0962 108.39 97.0882 108.502 97.0722 108.602H94.5462C94.5662 108.866 94.6642 109.078 94.8402 109.238C95.0162 109.398 95.2322 109.478 95.4882 109.478C95.8562 109.478 96.1162 109.324 96.2682 109.016H97.0062C96.9062 109.32 96.7242 109.57 96.4602 109.766C96.2002 109.958 95.8762 110.054 95.4882 110.054C95.1722 110.054 94.8882 109.984 94.6362 109.844C94.3882 109.7 94.1922 109.5 94.0482 109.244C93.9082 108.984 93.8382 108.684 93.8382 108.344C93.8382 108.004 93.9062 107.706 94.0422 107.45C94.1822 107.19 94.3762 106.99 94.6242 106.85C94.8762 106.71 95.1642 106.64 95.4882 106.64C95.8002 106.64 96.0782 106.708 96.3222 106.844C96.5662 106.98 96.7562 107.172 96.8922 107.42C97.0282 107.664 97.0962 107.946 97.0962 108.266ZM96.3822 108.05C96.3782 107.798 96.2882 107.596 96.1122 107.444C95.9362 107.292 95.7182 107.216 95.4582 107.216C95.2222 107.216 95.0202 107.292 94.8522 107.444C94.6842 107.592 94.5842 107.794 94.5522 108.05H96.3822ZM80.425 113.694L78.397 118.554H77.689L78.361 116.946L77.059 113.694H77.821L78.751 116.214L79.717 113.694H80.425ZM82.3752 117.054C82.0632 117.054 81.7812 116.984 81.5292 116.844C81.2772 116.7 81.0792 116.5 80.9352 116.244C80.7912 115.984 80.7192 115.684 80.7192 115.344C80.7192 115.008 80.7932 114.71 80.9412 114.45C81.0892 114.19 81.2912 113.99 81.5472 113.85C81.8032 113.71 82.0892 113.64 82.4052 113.64C82.7212 113.64 83.0072 113.71 83.2632 113.85C83.5192 113.99 83.7212 114.19 83.8692 114.45C84.0172 114.71 84.0912 115.008 84.0912 115.344C84.0912 115.68 84.0152 115.978 83.8632 116.238C83.7112 116.498 83.5032 116.7 83.2392 116.844C82.9792 116.984 82.6912 117.054 82.3752 117.054ZM82.3752 116.46C82.5512 116.46 82.7152 116.418 82.8672 116.334C83.0232 116.25 83.1492 116.124 83.2452 115.956C83.3412 115.788 83.3892 115.584 83.3892 115.344C83.3892 115.104 83.3432 114.902 83.2512 114.738C83.1592 114.57 83.0372 114.444 82.8852 114.36C82.7332 114.276 82.5692 114.234 82.3932 114.234C82.2172 114.234 82.0532 114.276 81.9012 114.36C81.7532 114.444 81.6352 114.57 81.5472 114.738C81.4592 114.902 81.4152 115.104 81.4152 115.344C81.4152 115.7 81.5052 115.976 81.6852 116.172C81.8692 116.364 82.0992 116.46 82.3752 116.46ZM87.7614 113.694V117H87.0774V116.61C86.9694 116.746 86.8274 116.854 86.6514 116.934C86.4794 117.01 86.2954 117.048 86.0994 117.048C85.8394 117.048 85.6054 116.994 85.3974 116.886C85.1934 116.778 85.0314 116.618 84.9114 116.406C84.7954 116.194 84.7374 115.938 84.7374 115.638V113.694H85.4154V115.536C85.4154 115.832 85.4894 116.06 85.6374 116.22C85.7854 116.376 85.9874 116.454 86.2434 116.454C86.4994 116.454 86.7014 116.376 86.8494 116.22C87.0014 116.06 87.0774 115.832 87.0774 115.536V113.694H87.7614ZM91.3445 112.77C91.7525 112.77 92.0785 112.882 92.3225 113.106C92.5705 113.33 92.6945 113.636 92.6945 114.024C92.6945 114.428 92.5665 114.732 92.3105 114.936C92.0545 115.14 91.7145 115.242 91.2905 115.242L91.2665 115.716H90.6725L90.6425 114.774H90.8405C91.2285 114.774 91.5245 114.722 91.7285 114.618C91.9365 114.514 92.0405 114.316 92.0405 114.024C92.0405 113.812 91.9785 113.646 91.8545 113.526C91.7345 113.406 91.5665 113.346 91.3505 113.346C91.1345 113.346 90.9645 113.404 90.8405 113.52C90.7165 113.636 90.6545 113.798 90.6545 114.006H90.0125C90.0125 113.766 90.0665 113.552 90.1745 113.364C90.2825 113.176 90.4365 113.03 90.6365 112.926C90.8405 112.822 91.0765 112.77 91.3445 112.77ZM90.9605 117.042C90.8365 117.042 90.7325 117 90.6485 116.916C90.5645 116.832 90.5225 116.728 90.5225 116.604C90.5225 116.48 90.5645 116.376 90.6485 116.292C90.7325 116.208 90.8365 116.166 90.9605 116.166C91.0805 116.166 91.1825 116.208 91.2665 116.292C91.3505 116.376 91.3925 116.48 91.3925 116.604C91.3925 116.728 91.3505 116.832 91.2665 116.916C91.1825 117 91.0805 117.042 90.9605 117.042Z" fill="black"/>
</svg>
